<?xml version="1.0" encoding="UTF-8"?>
<!-- Generator: visioncortex VTracer 0.6.2 -->
<svg version="1.1" xmlns="http://www.w3.org/2000/svg" width="1280" height="261">
<path d="M0 0 C4.95 0 9.9 0 15 0 C15 0.66 15 1.32 15 2 C15.91265625 1.91298828 15.91265625 1.91298828 16.84375 1.82421875 C31.1010558 1.09038683 46.80522553 7.34949246 58 16 C62.18156087 20.28207916 65.09678684 24.29036052 67 30 C67.66 30 68.32 30 69 30 C69.19335938 30.63808594 69.38671875 31.27617187 69.5859375 31.93359375 C69.84632813 32.75988281 70.10671875 33.58617187 70.375 34.4375 C70.63023437 35.26121094 70.88546875 36.08492187 71.1484375 36.93359375 C71.80882227 39.17798016 71.80882227 39.17798016 74 40 C73.67 40.99 73.34 41.98 73 43 C73.66 43 74.32 43 75 43 C76.98029832 47.9820344 77.30707997 52.23306037 77.30078125 57.50390625 C77.30506638 58.30481186 77.3093515 59.10571747 77.31376648 59.93089294 C77.31948444 61.61594704 77.32002882 63.30102581 77.31567383 64.98608398 C77.31250529 67.55820768 77.33603316 70.12918937 77.36132812 72.70117188 C77.3636006 74.34374856 77.36430486 75.98632831 77.36328125 77.62890625 C77.372491 78.39360733 77.38170074 79.15830841 77.39118958 79.94618225 C77.35133446 84.55967736 76.57604905 87.21234368 74 91 C74 92.03125 74 93.0625 74 94.125 C74 97 74 97 72.5 98.5625 C72.005 99.036875 71.51 99.51125 71 100 C71 100.804375 71 101.60875 71 102.4375 C71 105.69593337 69.99918258 106.48251082 68 109 C67.28323892 110.69416255 66.56777629 112.38892973 65.8671875 114.08984375 C61.92132739 122.78140049 53.65269977 137.67365012 45 142 C44.9175 142.61875 44.835 143.2375 44.75 143.875 C44 146 44 146 41.0625 147.5625 C40.051875 148.036875 39.04125 148.51125 38 149 C37.34 149.99 36.68 150.98 36 152 C35.34 152 34.68 152 34 152 C33.67 152.99 33.34 153.98 33 155 C31.5625 156.6875 31.5625 156.6875 30 158 C29.34 158 28.68 158 28 158 C28 158.66 28 159.32 28 160 C25.8046875 161.5859375 25.8046875 161.5859375 22.875 163.375 C19.69578813 165.33238108 16.54690243 167.27992188 13.5 169.4375 C11 171 11 171 8 171 C8 171.66 8 172.32 8 173 C7.36191406 173.27714844 6.72382812 173.55429688 6.06640625 173.83984375 C5.24011719 174.20207031 4.41382813 174.56429687 3.5625 174.9375 C2.73878906 175.29714844 1.91507813 175.65679687 1.06640625 176.02734375 C-0.94410117 176.83122323 -0.94410117 176.83122323 -2 178 C-4.33297433 178.04092937 -6.66705225 178.04241723 -9 178 C-9.33 178.99 -9.66 179.98 -10 181 C-11.65 181 -13.3 181 -15 181 C-15 181.66 -15 182.32 -15 183 C-23.33030853 184.86932849 -23.33030853 184.86932849 -26.5625 185.5 C-29.18719789 186.0029166 -29.18719789 186.0029166 -32.4375 187.01171875 C-37.75309046 188.3416714 -42.98403362 188.33026373 -48.4375 188.3125 C-49.42298828 188.32861328 -50.40847656 188.34472656 -51.42382812 188.36132812 C-57.89390251 188.36561578 -62.98789714 187.29633711 -69 185 C-70.67894563 184.56932396 -72.36496059 184.16278591 -74.0625 183.8125 C-74.81660156 183.65394531 -75.57070313 183.49539062 -76.34765625 183.33203125 C-76.89292969 183.22246094 -77.43820312 183.11289063 -78 183 C-78 182.34 -78 181.68 -78 181 C-78.74121094 180.89816406 -79.48242188 180.79632813 -80.24609375 180.69140625 C-85.4891754 179.37505809 -89.23993391 175.37290248 -92.40234375 171.109375 C-95.40285729 165.8558068 -95.43774535 160.93388136 -95 155 C-92.16305802 155.61373138 -89.86090262 156.49661871 -87.3125 157.875 C-76.99526591 163.03361705 -68.38725679 163.35299189 -57 163 C-57.3609375 162.57074219 -57.721875 162.14148438 -58.09375 161.69921875 C-63.74509725 153.61465255 -62.43090432 144.41286537 -62 135 C-61.34 134.67 -60.68 134.34 -60 134 C-59.61004898 132.13507598 -59.61004898 132.13507598 -59.5 130 C-59.34375 127.8125 -59.34375 127.8125 -59 126 C-58.34 125.67 -57.68 125.34 -57 125 C-56.67 123.845 -56.34 122.69 -56 121.5 C-55.67 120.345 -55.34 119.19 -55 118 C-54.34 117.67 -53.68 117.34 -53 117 C-53 116.01 -53 115.02 -53 114 C-52.54625 113.566875 -52.0925 113.13375 -51.625 112.6875 C-49.75789029 110.99077259 -49.75789029 110.99077259 -49 108 C-48.03120737 105.09362211 -47.4133396 103.8100047 -45 102 C-44.34 102 -43.68 102 -43 102 C-43 100.35 -43 98.7 -43 97 C-42.360625 96.7525 -41.72125 96.505 -41.0625 96.25 C-38.83668483 95.19184556 -38.83668483 95.19184556 -38.25 93 C-37.95865509 91.00516811 -37.95865509 91.00516811 -38 89 C-36.625 87.375 -36.625 87.375 -35 86 C-34.34 86 -33.68 86 -33 86 C-33.2475 85.4225 -33.495 84.845 -33.75 84.25 C-33.8325 83.5075 -33.915 82.765 -34 82 C-32.68945377 80.64426252 -31.35251497 79.31387169 -30 78 C-29.30899447 76.00827818 -28.64097297 74.00838196 -28 72 C-26.5 70.125 -26.5 70.125 -25 69 C-24.34 69 -23.68 69 -23 69 C-23.226875 68.401875 -23.45375 67.80375 -23.6875 67.1875 C-23.790625 66.465625 -23.89375 65.74375 -24 65 C-22.6875 63.25 -22.6875 63.25 -21 62 C-20.34 62 -19.68 62 -19 62 C-18.855625 61.401875 -18.71125 60.80375 -18.5625 60.1875 C-17.47951179 55.97587919 -16.10925571 53.10925571 -13 50 C-13.66 49.67 -14.32 49.34 -15 49 C-14.01 49 -13.02 49 -12 49 C-12 48.01 -12 47.02 -12 46 C-11.34 46 -10.68 46 -10 46 C-10.495 44.02 -10.495 44.02 -11 42 C-10.34 42 -9.68 42 -9 42 C-7.98617037 38.3791799 -7.50102309 34.72188582 -7 31 C-10.70479057 29.81446702 -14.13216874 29.72857324 -18 30 C-19.68756133 30.96432076 -21.35666496 31.96210419 -23 33 C-24.66666667 33 -26.33333333 33 -28 33 C-29.33849671 33.99307821 -30.67151309 34.99357052 -32 36 C-33.99673484 36.35236497 -35.99650739 36.68834559 -38 37 C-38.495 37.99 -38.495 37.99 -39 39 C-40.98 39 -42.96 39 -45 39 C-45 39.66 -45 40.32 -45 41 C-46.11375 41.2475 -47.2275 41.495 -48.375 41.75 C-52.01743954 42.55290809 -52.01743954 42.55290809 -53 44.8125 C-53.495 45.8953125 -53.495 45.8953125 -54 47 C-56.85704014 49.42960894 -59.96711358 51.45525853 -63.28125 53.203125 C-67.08956124 55.72011231 -70.03650163 58.90479846 -73.1875 62.1875 C-74.42632734 63.47715102 -75.66959758 64.76255383 -76.91796875 66.04296875 C-77.46219482 66.61039795 -78.0064209 67.17782715 -78.56713867 67.76245117 C-80 69 -80 69 -82 69 C-82.12375 69.763125 -82.2475 70.52625 -82.375 71.3125 C-83 74 -83 74 -85 77 C-85.66 77 -86.32 77 -87 77 C-87.226875 77.804375 -87.45375 78.60875 -87.6875 79.4375 C-88.76105973 82.35144783 -89.87809468 84.60558676 -91.4375 87.25 C-94.99378598 93.46038732 -96.65820029 100.01576049 -98 107 C-98.33333333 108.66666667 -98.66666667 110.33333333 -99 112 C-101.6875 112.375 -101.6875 112.375 -105 112 C-111.05315511 105.94684489 -112.26621712 101.64122026 -112.32226562 93.36132812 C-112.31743164 91.7284082 -112.31743164 91.7284082 -112.3125 90.0625 C-112.32861328 88.97775391 -112.34472656 87.89300781 -112.36132812 86.77539062 C-112.36197266 85.72673828 -112.36261719 84.67808594 -112.36328125 83.59765625 C-112.36626221 82.64383057 -112.36924316 81.69000488 -112.37231445 80.70727539 C-111.93609886 77.53534444 -110.79856629 75.61774472 -109 73 C-109.66 72.67 -110.32 72.34 -111 72 C-110.01 72 -109.02 72 -108 72 C-108 71.01 -108 70.02 -108 69 C-107.34 69 -106.68 69 -106 69 C-105.855625 67.865625 -105.71125 66.73125 -105.5625 65.5625 C-105 62 -105 62 -104 61 C-103.731875 60.401875 -103.46375 59.80375 -103.1875 59.1875 C-101.7934436 56.61950137 -100.19338901 54.91921539 -98 53 C-97.34 53 -96.68 53 -96 53 C-96.25555664 52.44207764 -96.51111328 51.88415527 -96.77441406 51.30932617 C-97 49 -97 49 -95.23339844 46.6340332 C-94.3674707 45.78156006 -93.50154297 44.92908691 -92.609375 44.05078125 C-92.14895813 43.59269577 -91.68854126 43.13461029 -91.21417236 42.66264343 C-90.23796259 41.69617761 -89.25573813 40.73575519 -88.26806641 39.78100586 C-86.75747612 38.31973205 -85.26629381 36.84070772 -83.77734375 35.35742188 C-75.71116452 27.4107825 -75.71116452 27.4107825 -70.9375 26.6875 C-68.79878028 26.15861061 -68.79878028 26.15861061 -67.75 23.9375 C-67.5025 23.298125 -67.255 22.65875 -67 22 C-66.34 22 -65.68 22 -65 22 C-65 21.34 -65 20.68 -65 20 C-63.02 19.67 -61.04 19.34 -59 19 C-58.505 17.515 -58.505 17.515 -58 16 C-57.34 16 -56.68 16 -56 16 C-56 15.34 -56 14.68 -56 14 C-53.525 14.495 -53.525 14.495 -51 15 C-51 14.34 -51 13.68 -51 13 C-49.02 12.67 -47.04 12.34 -45 12 C-45 11.34 -45 10.68 -45 10 C-42.03 9.505 -42.03 9.505 -39 9 C-39 8.34 -39 7.68 -39 7 C-37.68 7.33 -36.36 7.66 -35 8 C-34.67 7.34 -34.34 6.68 -34 6 C-32.01603018 5.73547069 -30.03051688 5.47789658 -28.0390625 5.27734375 C-25.48214934 4.92956437 -23.39000094 3.96738133 -21 3 C-13.7689156 0.94151612 -7.4144845 0.95689762 0 2 C0 1.34 0 0.68 0 0 Z M4 29 C4 30.32 4 31.64 4 33 C5.32844745 34.00648157 6.66216225 35.00603424 8 36 C10.17355695 41.6256768 10.26520538 47.18005527 9 53 C8.34 53 7.68 53 7 53 C7.020625 53.9075 7.04125 54.815 7.0625 55.75 C7.0110245 58.42672588 6.7784983 60.46988052 6 63 C5.34 63 4.68 63 4 63 C3.814375 64.2065625 3.814375 64.2065625 3.625 65.4375 C3.41875 66.283125 3.2125 67.12875 3 68 C2.01 68.495 2.01 68.495 1 69 C0.34227572 72.02934491 0.34227572 72.02934491 0 75 C-0.99 75.33 -1.98 75.66 -3 76 C-2.505 78.475 -2.505 78.475 -2 81 C-2.639375 81.20625 -3.27875 81.4125 -3.9375 81.625 C-6.34925077 82.89538209 -6.34925077 82.89538209 -6.75 86.125 C-6.8325 87.07375 -6.915 88.0225 -7 89 C-7.66 89 -8.32 89 -9 89 C-9.66 91.31 -10.32 93.62 -11 96 C-11.66 96 -12.32 96 -13 96 C-13.26554688 96.63808594 -13.53109375 97.27617188 -13.8046875 97.93359375 C-14.15789062 98.75988281 -14.51109375 99.58617188 -14.875 100.4375 C-15.22304688 101.26121094 -15.57109375 102.08492188 -15.9296875 102.93359375 C-17 105 -17 105 -19 106 C-19.65772428 109.02934491 -19.65772428 109.02934491 -20 112 C-21.485 112.495 -21.485 112.495 -23 113 C-23.33 114.98 -23.66 116.96 -24 119 C-24.66 119 -25.32 119 -26 119 C-26.33 120.98 -26.66 122.96 -27 125 C-27.66 125 -28.32 125 -29 125 C-29.45375 126.0725 -29.9075 127.145 -30.375 128.25 C-31.24912779 130.30482173 -32.14422661 132.27327148 -33.1875 134.25 C-34.21055565 136.13193471 -34.21055565 136.13193471 -34 139 C-34.66 139 -35.32 139 -36 139 C-36.33 140.98 -36.66 142.96 -37 145 C-37.66 145 -38.32 145 -39 145 C-40.14051606 149.98283716 -41.22225866 154.94468132 -42 160 C-40.33725801 161.25124046 -40.33725801 161.25124046 -38 162 C-35.98415349 161.38290413 -33.98248715 160.71706982 -32 160 C-31.01 160.33 -30.02 160.66 -29 161 C-28.01 160.01 -28.01 160.01 -27 159 C-25.35008418 158.29289322 -23.6792238 157.63437344 -22 157 C-20.80375 156.46375 -19.6075 155.9275 -18.375 155.375 C-15 154 -15 154 -12 154 C-12 153.34 -12 152.68 -12 152 C-9.03 151.505 -9.03 151.505 -6 151 C-6 150.01 -6 149.02 -6 148 C-4.02 147.505 -4.02 147.505 -2 147 C-2 146.34 -2 145.68 -2 145 C-0.68 145 0.64 145 2 145 C6.64437066 142.9916235 9.33016437 139.48283542 12.44921875 135.64453125 C12.96097656 135.10183594 13.47273437 134.55914062 14 134 C15.33333333 134 16.66666667 134 18 134 C18 133.34 18 132.68 18 132 C18.66 132 19.32 132 20 132 C21.53457367 130.48280017 21.53457367 130.48280017 23.125 128.5 C27.67312432 123.15595392 32.37249912 117.97062566 38 113.75 C38.66 113.1725 39.32 112.595 40 112 C40 110.68 40 109.36 40 108 C41.42578125 106.18359375 41.42578125 106.18359375 43.3125 104.4375 C43.92738281 103.85871094 44.54226563 103.27992187 45.17578125 102.68359375 C46.07876953 101.85021484 46.07876953 101.85021484 47 101 C49.67882794 98.4846686 50.72944691 96.47284511 52 93 C53.13424251 90.65589881 54.33933973 88.36204131 55.5625 86.0625 C56.86769413 83.28186904 57.4203771 80.98091777 58 78 C58.99 77.01 58.99 77.01 60 76 C61.70631914 65.09439506 62.5944111 53.30975684 56 44 C54.52238341 42.09829946 54.52238341 42.09829946 53 41 C52.34 41 51.68 41 51 41 C51 40.34 51 39.68 51 39 C50.40832031 38.74605469 49.81664062 38.49210937 49.20703125 38.23046875 C42.38153637 35.25753705 42.38153637 35.25753705 39.5 33.3125 C35.82517281 31.38321573 32.09764549 31.25889263 28 31 C28 30.34 28 29.68 28 29 C20.08 29 12.16 29 4 29 Z M6 38 C7 40 7 40 7 40 Z M-70 53 C-69 55 -69 55 -69 55 Z M-73 56 C-72 58 -72 58 -72 58 Z M-87 72 C-86.34 72.66 -85.68 73.32 -85 74 C-85 73.34 -85 72.68 -85 72 C-85.66 72 -86.32 72 -87 72 Z M-27 73 C-27.33 73.66 -27.66 74.32 -28 75 C-27.34 75 -26.68 75 -26 75 C-26.33 74.34 -26.66 73.68 -27 73 Z M-96 88 C-95 90 -95 90 -95 90 Z M-17 99 C-16 101 -16 101 -16 101 Z M59 118 C59 118.66 59 119.32 59 120 C58.01 120.495 58.01 120.495 57 121 C57.99 121 58.98 121 60 121 C59.67 120.01 59.34 119.02 59 118 Z M-30 122 C-29 124 -29 124 -29 124 Z M49 132 C50 135 50 135 50 135 Z M33 149 C34 151 34 151 34 151 Z M-30 182 C-30.33 182.66 -30.66 183.32 -31 184 C-30.34 184 -29.68 184 -29 184 C-29.33 183.34 -29.66 182.68 -30 182 Z " fill="#F5F7F7" transform="translate(766,0)"/>
<path d="M0 0 C14.85 0 29.7 0 45 0 C45 0.66 45 1.32 45 2 C45.99 1.67 46.98 1.34 48 1 C56.7665992 10.90143405 57.47316423 21.36355696 57.25 34.1875 C57.23831787 35.45948242 57.22663574 36.73146484 57.21459961 38.04199219 C56.89723106 64.10276894 56.89723106 64.10276894 55 66 C54.87864373 67.57763152 54.8203406 69.1602045 54.7890625 70.7421875 C54.76070312 71.72703125 54.73234375 72.711875 54.703125 73.7265625 C54.65201489 75.78629999 54.6074781 77.84621372 54.5703125 79.90625 C54.35077927 86.98619663 53.16037778 93.25609552 51 100 C53.99321322 101.49660661 57.14724454 101.33285626 60.4375 101.5 C67.59734637 101.86578212 67.59734637 101.86578212 71 103 C72.1875 105.5625 72.1875 105.5625 73 108 C69.59689126 112.14291498 66.80516295 114.77000601 61.3515625 115.46484375 C57.87754875 115.44018037 54.45999715 115.30615143 51 115 C49.99740493 118.00778521 49.69685358 120.53820647 49.4375 123.6875 C49.35371094 124.68136719 49.26992187 125.67523438 49.18359375 126.69921875 C49.12300781 127.45847656 49.06242188 128.21773437 49 129 C48.34 129 47.68 129 47 129 C47.165 130.11375 47.33 131.2275 47.5 132.375 C47.91905793 135.59155275 47.9877604 138.63570131 47.875 141.875 C47.81110867 146.50357176 48.80131966 150.24024143 50.2734375 154.6015625 C50.98069422 156.93627016 51.32635291 159.07730576 51.5625 161.5 C51.64278158 165.05207532 51.64278158 165.05207532 54 167 C54.28875 167.598125 54.5775 168.19625 54.875 168.8125 C55.97582223 171.18030545 55.97582223 171.18030545 58.1875 173.4375 C60 176 60 176 60.125 178.5625 C58.48418108 182.11760766 56.4509265 183.24198084 53 185 C49.625 185.25 49.625 185.25 47 185 C46.34 183.68 45.68 182.36 45 181 C44.236875 181.061875 43.47375 181.12375 42.6875 181.1875 C40 181 40 181 38.1875 179.625 C37 178 37 178 37 176 C36.34 176 35.68 176 35 176 C32 170.375 32 170.375 32 167 C31.34 167 30.68 167 30 167 C27.56032615 161.37814286 26.57331001 156.53516191 26.2109375 150.41796875 C26.08211792 147.85871431 26.08211792 147.85871431 25 145 C24.65167903 141.82243618 24.53332468 138.62960497 24.375 135.4375 C24.29765625 134.15262695 24.29765625 134.15262695 24.21875 132.84179688 C24.17492187 131.98521484 24.13109375 131.12863281 24.0859375 130.24609375 C24.0451709 129.47966553 24.0044043 128.7132373 23.96240234 127.92358398 C24.01797565 123.60221799 24.56997246 119.30027543 25 115 C14.77 115 4.54 115 -6 115 C-6 116.65 -6 118.3 -6 120 C-7.6796875 122.45703125 -7.6796875 122.45703125 -9.875 124.8125 C-10.59429687 125.60269531 -11.31359375 126.39289063 -12.0546875 127.20703125 C-14 129 -14 129 -16 129 C-16.061875 129.70125 -16.12375 130.4025 -16.1875 131.125 C-17.30780571 135.08915867 -19.16066526 137.02216113 -22 140 C-22.66 140 -23.32 140 -24 140 C-24.36254883 140.84933105 -24.36254883 140.84933105 -24.73242188 141.71582031 C-26.25095817 144.4522274 -28.07151881 146.33069338 -30.28125 148.546875 C-31.54388672 149.81337891 -31.54388672 149.81337891 -32.83203125 151.10546875 C-33.71246094 151.97816406 -34.59289062 152.85085937 -35.5 153.75 C-36.38042969 154.63816406 -37.26085938 155.52632812 -38.16796875 156.44140625 C-39.00972656 157.28058594 -39.85148437 158.11976563 -40.71875 158.984375 C-41.49154297 159.75491211 -42.26433594 160.52544922 -43.06054688 161.31933594 C-45 163 -45 163 -47 163 C-47.33 163.99 -47.66 164.98 -48 166 C-51 168 -51 168 -55 168 C-55.20625 168.598125 -55.4125 169.19625 -55.625 169.8125 C-57.52695827 172.8383427 -59.75300404 173.64708502 -63 175 C-63.66 175 -64.32 175 -65 175 C-65.33 175.99 -65.66 176.98 -66 178 C-72.56877916 182.16580747 -79.47553584 182.00168443 -87 181 C-90.48863736 179.50290759 -93.36779124 177.75347583 -96 175 C-96 174.34 -96 173.68 -96 173 C-96.66 173 -97.32 173 -98 173 C-98.33 171.68 -98.66 170.36 -99 169 C-99.66 169 -100.32 169 -101 169 C-101 165.37 -101 161.74 -101 158 C-99.35 158.66 -97.7 159.32 -96 160 C-94.07096868 160.2759478 -92.1310968 160.48449903 -90.1875 160.625 C-89.21167969 160.69976562 -88.23585938 160.77453125 -87.23046875 160.8515625 C-86.12638672 160.92503906 -86.12638672 160.92503906 -85 161 C-84.67 160.01 -84.34 159.02 -84 158 C-81.69 157.67 -79.38 157.34 -77 157 C-77 156.34 -77 155.68 -77 155 C-76.25421188 154.7418602 -75.50842377 154.4837204 -74.74003601 154.21775818 C-71.89592513 152.95374585 -70.33901796 151.70822996 -68.15942383 149.51586914 C-67.4455098 148.80495621 -66.73159576 148.09404327 -65.99604797 147.36158752 C-65.24067245 146.5938652 -64.48529694 145.82614288 -63.70703125 145.03515625 C-62.91979172 144.24604355 -62.13255219 143.45693085 -61.32145691 142.64390564 C-59.66138623 140.97712166 -58.0049128 139.30674823 -56.35180664 137.63305664 C-53.8184483 135.0685215 -51.2745554 132.51483027 -48.72851562 129.96289062 C-47.11656201 128.34176755 -45.50521303 126.72004298 -43.89453125 125.09765625 C-43.13308304 124.33195816 -42.37163483 123.56626007 -41.58711243 122.77735901 C-40.88265488 122.06329391 -40.17819733 121.34922882 -39.45239258 120.61352539 C-38.83237869 119.9866835 -38.21236481 119.35984161 -37.57356262 118.71400452 C-35.80871548 116.87999981 -35.80871548 116.87999981 -34 114 C-35.98983893 112.01016107 -39.85542617 112.62608426 -42.5546875 112.4765625 C-45.37759967 111.92641029 -46.29224996 111.27518136 -48 109 C-48.6875 106.3125 -48.6875 106.3125 -49 104 C-48.01 104.33 -47.02 104.66 -46 105 C-46.33 104.01 -46.66 103.02 -47 102 C-41.29943733 98.19962489 -36.26037373 97.71901472 -29.625 97.875 C-28.88894531 97.88402344 -28.15289062 97.89304687 -27.39453125 97.90234375 C-25.5962112 97.92569856 -23.79806089 97.96156164 -22 98 C-21.71125 97.35804687 -21.4225 96.71609375 -21.125 96.0546875 C-20 94 -20 94 -18 93.125 C-15.02701684 91.45269697 -14.95430938 89.18103127 -14 86 C-12.5 83.625 -12.5 83.625 -11 82 C-10.34 82 -9.68 82 -9 82 C-9 80.35 -9 78.7 -9 77 C-7.515 77.495 -7.515 77.495 -6 78 C-6.33 77.01 -6.66 76.02 -7 75 C-6.34 75 -5.68 75 -5 75 C-4.71125 73.906875 -4.4225 72.81375 -4.125 71.6875 C-3 68 -3 68 -1 65 C-0.34 65 0.32 65 1 65 C1.5534764 62.92446352 2 61.15634036 2 59 C4 57 4 57 7 56 C6.505 54.02 6.505 54.02 6 52 C6.66 52 7.32 52 8 52 C9.15811388 49.05270463 9.15811388 49.05270463 9 46 C9.66 46 10.32 46 11 46 C11.33 45.01 11.66 44.02 12 43 C12.66 42.01 13.32 41.02 14 40 C13.34 39.67 12.68 39.34 12 39 C12.66 38.5875 13.32 38.175 14 37.75 C14.66 37.1725 15.32 36.595 16 36 C16 34.68 16 33.36 16 32 C16.66 32 17.32 32 18 32 C19.10251165 28.69246505 20.05066101 25.35433109 21 22 C21.66 22 22.32 22 23 22 C23 20.35 23 18.7 23 17 C22.34 16.67 21.68 16.34 21 16 C21 16.66 21 17.32 21 18 C13.49710983 19.90751445 13.49710983 19.90751445 10.3125 20.5 C7.92039715 20.94144224 7.92039715 20.94144224 5.5 22.0625 C2.82226817 23.06664944 0.83421974 23.16195541 -2 23 C-2.495 24.485 -2.495 24.485 -3 26 C-4.98 26 -6.96 26 -9 26 C-9.495 27.485 -9.495 27.485 -10 29 C-11.65 29 -13.3 29 -15 29 C-15 29.66 -15 30.32 -15 31 C-15.66 31 -16.32 31 -17 31 C-17 31.66 -17 32.32 -17 33 C-19.90548882 35.04169485 -21.40142046 36 -25 36 C-25 36.66 -25 37.32 -25 38 C-27.70514578 39.95022137 -30.42319612 41.69641901 -33.375 43.25 C-37.73339721 46.15559814 -43.06829759 50.14046653 -44.734375 55.25390625 C-44.82203125 55.83011719 -44.9096875 56.40632813 -45 57 C-45.66 57 -46.32 57 -47 57 C-47 57.66 -47 58.32 -47 59 C-47.66 59 -48.32 59 -49 59 C-49.103125 59.825 -49.20625 60.65 -49.3125 61.5 C-50.2625741 66.33674087 -51.76773031 70.94621719 -54.3125 75.1875 C-55.33940842 77.89480401 -54.11427576 79.40002322 -53 82 C-52.875 85.3125 -52.875 85.3125 -53 88 C-56.07322544 88.91058531 -58.80097361 89.08886184 -62 89 C-62 88.34 -62 87.68 -62 87 C-63.0828125 86.690625 -63.0828125 86.690625 -64.1875 86.375 C-69.0316781 84.00673515 -71.35313248 80.6017672 -73.3125 75.75 C-74.85150291 67.35543868 -74.05417944 59.2616998 -72 51 C-71.67 50.67 -71.34 50.34 -71 50 C-69.66172696 48.33729713 -68.32810215 46.67083819 -67 45 C-67.33 44.34 -67.66 43.68 -68 43 C-67.34 43 -66.68 43 -66 43 C-65.34 41.68 -64.68 40.36 -64 39 C-63.34 39 -62.68 39 -62 39 C-61.814375 38.13375 -61.814375 38.13375 -61.625 37.25 C-60.22360435 32.20497564 -57.38001654 28.98631031 -53.75 25.3125 C-53.28464844 24.81427734 -52.81929687 24.31605469 -52.33984375 23.80273438 C-49.05558341 20.46871252 -46.6615145 19.29651645 -42 19 C-41.505 17.515 -41.505 17.515 -41 16 C-39.88625 15.87625 -39.88625 15.87625 -38.75 15.75 C-35.85471119 15.21103995 -35.85471119 15.21103995 -33.9375 12.875 C-32.9784375 11.946875 -32.9784375 11.946875 -32 11 C-29.75 11.25 -29.75 11.25 -28 12 C-28 11.34 -28 10.68 -28 10 C-27.34 10 -26.68 10 -26 10 C-25.67 9.34 -25.34 8.68 -25 8 C-24.01 7.67 -23.02 7.34 -22 7 C-22 6.67 -22 6.34 -22 6 C-21.34773438 5.87882813 -20.69546875 5.75765625 -20.0234375 5.6328125 C-16.16452427 4.89290288 -12.46910327 4.1623819 -8.75 2.875 C-5.70252404 1.90534856 -3.17845661 1.84864492 0 2 C0 1.34 0 0.68 0 0 Z M18 14 C18 14.66 18 15.32 18 16 C18.66 15.67 19.32 15.34 20 15 C19.34 14.67 18.68 14.34 18 14 Z M-46 20 C-46.33 20.66 -46.66 21.32 -47 22 C-46.34 22 -45.68 22 -45 22 C-45.33 21.34 -45.66 20.68 -46 20 Z M-20 29 C-19 32 -19 32 -19 32 Z M-28 34 C-28 34.66 -28 35.32 -28 36 C-27.34 35.67 -26.68 35.34 -26 35 C-26.66 34.67 -27.32 34.34 -28 34 Z M-32 37 C-32 37.66 -32 38.32 -32 39 C-31.34 38.67 -30.68 38.34 -30 38 C-30.66 37.67 -31.32 37.34 -32 37 Z M29 63 C28.731875 63.969375 28.46375 64.93875 28.1875 65.9375 C27.795625 66.948125 27.40375 67.95875 27 69 C26.01 69.33 25.02 69.66 24 70 C23.67 71.98 23.34 73.96 23 76 C22.34 76 21.68 76 21 76 C20.6596875 76.9590625 20.6596875 76.9590625 20.3125 77.9375 C17.91346534 83.53524754 15.31759438 88.68240562 11 93 C9.6954344 95.99615946 9.6954344 95.99615946 9 99 C9.33 99.66 9.66 100.32 10 101 C15.61 101 21.22 101 27 101 C27.19916016 98.99486328 27.19916016 98.99486328 27.40234375 96.94921875 C27.58054998 95.19529428 27.75894523 93.44138902 27.9375 91.6875 C28.02451172 90.80642578 28.11152344 89.92535156 28.20117188 89.01757812 C28.28818359 88.17001953 28.37519531 87.32246094 28.46484375 86.44921875 C28.543396 85.66893311 28.62194824 84.88864746 28.70288086 84.0847168 C29 82 29 82 30 79 C30.22718496 76.43365139 30.41608184 73.88321893 30.5625 71.3125 C30.60568359 70.61060547 30.64886719 69.90871094 30.69335938 69.18554688 C30.7991736 67.45724794 30.90006581 65.7286489 31 64 C30.34 63.67 29.68 63.34 29 63 Z M13 85 C13 85.66 13 86.32 13 87 C12.01 87.495 12.01 87.495 11 88 C11.99 88 12.98 88 14 88 C13.67 87.01 13.34 86.02 13 85 Z M69 106 C70 108 70 108 70 108 Z M-10 118 C-10 118.66 -10 119.32 -10 120 C-10.99 120.495 -10.99 120.495 -12 121 C-11.01 121 -10.02 121 -9 121 C-9.33 120.01 -9.66 119.02 -10 118 Z M-14 122 C-14.33 122.99 -14.66 123.98 -15 125 C-14.01 124.67 -13.02 124.34 -12 124 C-12 123.34 -12 122.68 -12 122 C-12.66 122 -13.32 122 -14 122 Z M-20 131 C-19 134 -19 134 -19 134 Z M-24 135 C-23.34 135.66 -22.68 136.32 -22 137 C-22 136.34 -22 135.68 -22 135 C-22.66 135 -23.32 135 -24 135 Z " fill="#F6F7F7" transform="translate(101,0)"/>
<path d="M0 0 C0.94875 0.185625 1.8975 0.37125 2.875 0.5625 C5.89868793 1.28686632 5.89868793 1.28686632 8 0 C10.49609375 0.48828125 10.49609375 0.48828125 13.4375 1.3125 C14.40558594 1.57675781 15.37367188 1.84101562 16.37109375 2.11328125 C19 3 19 3 22 5 C22 5.66 22 6.32 22 7 C22.87398437 7.14695312 22.87398437 7.14695312 23.765625 7.296875 C27.79269389 8.56413444 30.48173927 11.70475524 33 15 C33.4375 17.9375 33.4375 17.9375 33 20 C33.66 20 34.32 20 35 20 C36.12050151 23.36150452 36.13296652 25.96286726 36.125 29.5 C36.12886719 31.21703125 36.12886719 31.21703125 36.1328125 32.96875 C36 36 36 36 35 39 C34.34 39 33.68 39 33 39 C33.165 39.94875 33.33 40.8975 33.5 41.875 C33.55482738 48.60506048 27.13964259 53.70027466 22.859375 58.30078125 C21 60 21 60 19 60 C19 60.66 19 61.32 19 62 C18.34 62 17.68 62 17 62 C17 62.66 17 63.32 17 64 C15.33118705 64.9536074 13.66161524 65.90591083 11.98828125 66.8515625 C10.17464005 67.89912736 8.39738545 69.00905361 6.625 70.125 C-0.70118033 74.26943164 -9.98735767 75.24547591 -18.1875 73.546875 C-19.80913859 73.08915443 -21.40852435 72.55355675 -23 72 C-21.34251011 83.12966024 -21.34251011 83.12966024 -15 92 C-12.73606029 92.78356902 -12.73606029 92.78356902 -10.3125 93.1875 C-9.10013672 93.42533203 -9.10013672 93.42533203 -7.86328125 93.66796875 C-7.24839844 93.77753906 -6.63351562 93.88710937 -6 94 C-6 93.34 -6 92.68 -6 92 C-5.22914063 91.87882812 -4.45828125 91.75765625 -3.6640625 91.6328125 C-2.66117188 91.46523437 -1.65828125 91.29765625 -0.625 91.125 C0.37273438 90.96257812 1.37046875 90.80015625 2.3984375 90.6328125 C5.1425115 90.2041198 5.1425115 90.2041198 7 88 C7.99 88 8.98 88 10 88 C10 87.01 10 86.02 10 85 C11.98 85 13.96 85 16 85 C16 84.34 16 83.68 16 83 C18.22311317 81.51792455 20.42483521 80.24878456 22.87841797 79.1875 C25.61170633 77.65761339 27.49532388 75.72864004 29.6953125 73.5 C30.57574219 72.613125 31.45617187 71.72625 32.36328125 70.8125 C33.27464844 69.884375 34.18601562 68.95625 35.125 68 C36.04410156 67.071875 36.96320313 66.14375 37.91015625 65.1875 C39.60920069 63.47099107 41.30618903 61.75244289 43.00048828 60.03125 C44.32837872 58.68228194 45.66152926 57.33847074 47 56 C47.61067144 54.14255793 47.61067144 54.14255793 48 52 C48.165 51.29875 48.33 50.5975 48.5 49.875 C49.24198144 45.60860669 49.60659742 41.3106878 50 37 C50.66 37 51.32 37 52 37 C52.495 32.05 52.495 32.05 53 27 C53.66 27 54.32 27 55 27 C54.76933838 26.25274658 54.53867676 25.50549316 54.30102539 24.7355957 C54 22 54 22 55.26342773 20.05541992 C56.21390991 19.15206909 56.21390991 19.15206909 57.18359375 18.23046875 C58.20356445 17.23950195 58.20356445 17.23950195 59.24414062 16.22851562 C59.96794922 15.55498047 60.69175781 14.88144531 61.4375 14.1875 C62.51741211 13.14819336 62.51741211 13.14819336 63.61914062 12.08789062 C65.40007996 10.37771709 67.19346102 8.68304201 69 7 C69.99 7.33 70.98 7.66 72 8 C72.66 7.34 73.32 6.68 74 6 C76.39872112 5.47853889 78.56367608 5.18675654 81 5 C81.90492188 4.92265625 82.80984375 4.8453125 83.7421875 4.765625 C91.61932447 4.39734327 97.13182384 6.2143911 104 10 C104 10.66 104 11.32 104 12 C104.99 12.33 105.98 12.66 107 13 C109 16 109 16 109 20 C109.66 20 110.32 20 111 20 C111.33 21.98 111.66 23.96 112 26 C112.66 26 113.32 26 114 26 C115.47715791 31.72398691 116.13622165 37.68021413 113.5 43.0625 C112.7575 44.0215625 112.7575 44.0215625 112 45 C110.35 44.67 108.7 44.34 107 44 C107 43.01 107 42.02 107 41 C106.34 40.67 105.68 40.34 105 40 C105 39.01 105 38.02 105 37 C104.34 37 103.68 37 103 37 C102.67 35.35 102.34 33.7 102 32 C101.071875 31.896875 100.14375 31.79375 99.1875 31.6875 C96 31 96 31 94.5 29.4375 C93.01101079 27.71993253 93.01101079 27.71993253 90.25 27.6875 C86.59280143 28.03915371 83.45245657 28.73852549 80 30 C79.01 31.485 79.01 31.485 78 33 C77.34 33 76.68 33 76 33 C75.855625 33.61875 75.71125 34.2375 75.5625 34.875 C75 37 75 37 74 39 C73.875442 41.82428021 73.81483228 44.61310525 73.8125 47.4375 C73.80025391 48.21416016 73.78800781 48.99082031 73.77539062 49.79101562 C73.76525805 53.71232309 73.7774583 55.66618745 76 59 C76.07905064 61.33199388 76.08798769 63.66832622 76 66 C77.98 66.99 77.98 66.99 80 68 C80 69.32 80 70.64 80 72 C82.25660873 74.34018683 83.48760851 74.96506422 86.75 75.1875 C87.4925 75.125625 88.235 75.06375 89 75 C89 74.34 89 73.68 89 73 C94.31385416 71.67153646 97.33904071 71.98759124 102.12890625 74.6953125 C105.20437862 76.83979637 106.98017271 78.80736976 109 82 C108.8125 84.875 108.8125 84.875 108 87 C105.525 87.495 105.525 87.495 103 88 C103 88.66 103 89.32 103 90 C102.44570313 90.25394531 101.89140625 90.50789063 101.3203125 90.76953125 C100.59585938 91.11371094 99.87140625 91.45789063 99.125 91.8125 C98.40570312 92.14894531 97.68640625 92.48539062 96.9453125 92.83203125 C94.69457194 93.99467097 94.69457194 93.99467097 93 97 C93.15397909 99.27571372 93.15397909 99.27571372 93.8125 101.625 C94.10060547 102.81996094 94.10060547 102.81996094 94.39453125 104.0390625 C94.82767339 105.98334731 94.82767339 105.98334731 96 107 C96.25194063 110.43020341 96.18522745 113.87413911 96.1875 117.3125 C96.19974609 118.27607422 96.21199219 119.23964844 96.22460938 120.23242188 C96.22654297 121.16248047 96.22847656 122.09253906 96.23046875 123.05078125 C96.23457764 123.90325439 96.23868652 124.75572754 96.24291992 125.6340332 C95.98180606 128.17720347 95.27889646 129.80620312 94 132 C93.34 132 92.68 132 92 132 C92.33 133.98 92.66 135.96 93 138 C92.34 138 91.68 138 91 138 C90.8453125 139.175625 90.8453125 139.175625 90.6875 140.375 C90 143 90 143 87 145 C86.608125 146.03125 86.21625 147.0625 85.8125 148.125 C83.86946208 153.08705921 80.07460968 156.66937425 76 160 C75.34 160 74.68 160 74 160 C74 160.66 74 161.32 74 162 C72.171875 163.40234375 72.171875 163.40234375 69.75 164.9375 C67.39574603 166.4416067 65.0943584 167.92814911 62.87109375 169.62109375 C60.70220742 171.21945883 58.51010414 172.05023086 56 173 C55.67 173.33 55.34 173.66 55 174 C52.0894353 174.18135286 49.22532419 174.27828515 46.3125 174.3125 C45.50876953 174.34150391 44.70503906 174.37050781 43.87695312 174.40039062 C38.42288953 174.45836514 35.30910503 173.66071305 31 170 C29.8125 167.8125 29.8125 167.8125 29 166 C28.01 165.67 27.02 165.34 26 165 C24.90234375 163.3984375 24.90234375 163.3984375 23.9375 161.375 C23.61652344 160.72273437 23.29554688 160.07046875 22.96484375 159.3984375 C20.55231078 153.40129076 19.69941098 148.13060144 19.8125 141.75 C19.8134668 140.69039063 19.8134668 140.69039063 19.81445312 139.609375 C19.84112221 136.48020291 20.00395175 133.98814475 21 131 C21.66 131 22.32 131 23 131 C23 128.69 23 126.38 23 124 C23.66 124 24.32 124 25 124 C25.185625 122.09927734 25.185625 122.09927734 25.375 120.16015625 C26.91933315 113.22289211 32.00615727 109.16431086 37 104.4375 C37.928125 103.52419922 38.85625 102.61089844 39.8125 101.66992188 C46.67698205 95 46.67698205 95 49 95 C49 94.34 49 93.68 49 93 C50.485 93.495 50.485 93.495 52 94 C52.68835938 93.20335937 52.68835938 93.20335937 53.390625 92.390625 C56.49493717 88.81675301 59.58181312 85.28145941 63 82 C62.34 81.01 61.68 80.02 61 79 C61 78.01 61 77.02 61 76 C60.34 76 59.68 76 59 76 C58.67 75.01 58.34 74.02 58 73 C56.515 72.01 56.515 72.01 55 71 C54.50113281 71.57105469 54.00226563 72.14210938 53.48828125 72.73046875 C48.81787946 78.00458495 44.01576648 83.11653624 39.0625 88.125 C38.2113562 88.99547974 38.2113562 88.99547974 37.34301758 89.88354492 C35.93429895 91.29565959 34.47131457 92.65322999 33 94 C32.34 94 31.68 94 31 94 C31 94.66 31 95.32 31 96 C28.35261084 97.4606285 27.10551666 98 24 98 C24 98.66 24 99.32 24 100 C23.01 100 22.02 100 21 100 C20.67 100.66 20.34 101.32 20 102 C18.515 101.505 18.515 101.505 17 101 C17 101.66 17 102.32 17 103 C13.3558226 105.4294516 11.28758728 105.16179575 7 105 C7 105.66 7 106.32 7 107 C2.25365112 108.35745986 -2.40844089 108.22299899 -7.3125 108.25 C-8.23740234 108.270625 -9.16230469 108.29125 -10.11523438 108.3125 C-15.91382136 108.34546993 -19.83651891 107.64256689 -25 105 C-26.32276056 104.62691369 -27.65232077 104.26953585 -29 104 C-29 103.01 -29 102.02 -29 101 C-32.465 100.505 -32.465 100.505 -36 100 C-36.33 99.01 -36.66 98.02 -37 97 C-37.99 96.67 -38.98 96.34 -40 96 C-48.10917167 85.72356641 -49.81273312 76.87142458 -49 64 C-48.505 63.505 -48.505 63.505 -48 63 C-47.76712992 61.31816052 -47.58735834 59.6287584 -47.4375 57.9375 C-47.35371094 57.01839844 -47.26992188 56.09929687 -47.18359375 55.15234375 C-47.12300781 54.44207031 -47.06242188 53.73179688 -47 53 C-45.515 52.505 -45.515 52.505 -44 52 C-44 51.34 -44 50.68 -44 50 C-44.66 49.67 -45.32 49.34 -46 49 C-45.01 48.505 -45.01 48.505 -44 48 C-43.34227572 44.97065509 -43.34227572 44.97065509 -43 42 C-42.01 42 -41.02 42 -40 42 C-40 40.35 -40 38.7 -40 37 C-39.01 36.505 -39.01 36.505 -38 36 C-37.95875 35.13375 -37.9175 34.2675 -37.875 33.375 C-36.72372945 28.93438502 -34.54246141 27.54364531 -31.05859375 24.73046875 C-29.22100955 23.18578222 -27.79234208 21.6894882 -26.3125 19.8125 C-24.04641575 17.05645159 -21.82833663 15.15492314 -19 13 C-17.87435187 11.97988138 -16.74939843 10.9589959 -15.625 9.9375 C-12.26780945 7.03378617 -9.14166876 5.56289387 -5 4 C-1.82144422 2.7113001 -1.82144422 2.7113001 0 0 Z M17 19 C17 19.66 17 20.32 17 21 C14.69 21.33 12.38 21.66 10 22 C10 22.66 10 23.32 10 24 C9.13375 24.185625 9.13375 24.185625 8.25 24.375 C3.54853059 25.68096373 1.46132961 27.48191446 -1.57421875 31.36328125 C-3.11913301 33.13675816 -4.77699537 34.48633005 -6.625 35.9375 C-10.23845886 38.9003795 -11.38613832 41.6680555 -13 46 C-13.66 46.33 -14.32 46.66 -15 47 C-15 47.66 -15 48.32 -15 49 C-15.66 49 -16.32 49 -17 49 C-17.515625 50.0725 -18.03125 51.145 -18.5625 52.25 C-18.85253906 52.85328125 -19.14257812 53.4565625 -19.44140625 54.078125 C-20.11761944 56.40467666 -19.75753907 57.73239959 -19 60 C-16.60182921 59.7435918 -14.20756272 59.4704516 -11.8125 59.1875 C-11.13896484 59.11724609 -10.46542969 59.04699219 -9.77148438 58.97460938 C-5.47094932 58.45015388 -2.53858108 57.47949872 1 55 C2.6396875 53.9790625 2.6396875 53.9790625 4.3125 52.9375 C5.199375 52.298125 6.08625 51.65875 7 51 C7 50.34 7 49.68 7 49 C7.99 48.67 8.98 48.34 10 48 C10.66856692 46.32858269 11.33338452 44.65549587 11.97265625 42.97265625 C13.56365411 39.91769837 15.99634448 37.91207384 18.57421875 35.67578125 C20.43200606 33.85895307 20.43200606 33.85895307 20 30 C20.66 30 21.32 30 22 30 C22.33 27.03 22.66 24.06 23 21 C20.18490007 18.7226499 20.18490007 18.7226499 17 19 Z M-1 26 C0 28 0 28 0 28 Z M-35 30 C-35.33 30.66 -35.66 31.32 -36 32 C-35.34 32 -34.68 32 -34 32 C-34.33 31.34 -34.66 30.68 -35 30 Z M75 30 C76 32 76 32 76 32 Z M111 39 C112 41 112 41 112 41 Z M15 40 C14.67 40.66 14.34 41.32 14 42 C14.66 42 15.32 42 16 42 C15.67 41.34 15.34 40.68 15 40 Z M12 43 C12 46 12 46 12 46 Z M25 50 C25 53 25 53 25 53 Z M22 53 C21.67 53.66 21.34 54.32 21 55 C21.99 54.67 22.98 54.34 24 54 C23.34 53.67 22.68 53.34 22 53 Z M20 55 C20 58 20 58 20 58 Z M15 60 C14.67 60.66 14.34 61.32 14 62 C14.66 62 15.32 62 16 62 C15.67 61.34 15.34 60.68 15 60 Z M10 63 C11 65 11 65 11 65 Z M52 68 C53 70 53 70 53 70 Z M-5 69 C-5.33 69.66 -5.66 70.32 -6 71 C-5.34 71 -4.68 71 -4 71 C-4.33 70.34 -4.66 69.68 -5 69 Z M48 73 C49 75 49 75 49 75 Z M64 83 C65 85 65 85 65 85 Z M28 93 C27.34 93.66 26.68 94.32 26 95 C27.32 94.67 28.64 94.34 30 94 C29.34 93.67 28.68 93.34 28 93 Z M5 102 C4.67 102.66 4.34 103.32 4 104 C4.66 104 5.32 104 6 104 C5.67 103.34 5.34 102.68 5 102 Z M60 114 C58.68861096 114.70885894 57.36222983 115.39456452 56 116 C56 116.66 56 117.32 56 118 C55.01 118.33 54.02 118.66 53 119 C51.98234073 120.99107248 50.98422146 122.99218823 50 125 C48.68557638 126.35197858 47.3565164 127.69026002 46 129 C46 129.66 46 130.32 46 131 C45.01 131.33 44.02 131.66 43 132 C43 133.32 43 134.64 43 136 C42.34 136 41.68 136 41 136 C38.64089647 140.2637281 38.64089647 140.2637281 38 145 C37.34 145 36.68 145 36 145 C35.67 146.98 35.34 148.96 35 151 C34.34 151 33.68 151 33 151 C33 151.99 33 152.98 33 154 C38.33098784 154.99956022 42.64991422 155.01467144 48 154 C48.33 153.34 48.66 152.68 49 152 C50.07894531 151.38125 50.07894531 151.38125 51.1796875 150.75 C54.67589746 148.58060656 57.2756154 145.94175867 60.125 143 C60.64964844 142.46632812 61.17429687 141.93265625 61.71484375 141.3828125 C63.14685249 139.92542639 64.57364914 138.46292396 66 137 C66.90685547 136.13568359 66.90685547 136.13568359 67.83203125 135.25390625 C69.34699594 133.62747258 69.51693846 132.13927254 70 130 C70.66 129.34 71.32 128.68 72 128 C74.78852587 120.33664242 76.56220244 113.15193542 76 105 C69.83031067 105 64.61695641 110.28078512 60 114 Z M61 109 C62 111 62 111 62 111 Z M28 116 C27.67 116.66 27.34 117.32 27 118 C27.66 118 28.32 118 29 118 C28.67 117.34 28.34 116.68 28 116 Z M88 138 C87.67 138.99 87.34 139.98 87 141 C87.66 141 88.32 141 89 141 C88.67 140.01 88.34 139.02 88 138 Z " fill="#F4F6F6" transform="translate(886,73)"/>
<path d="M0 0 C4.25431842 2.49033273 5.97393006 3.95028145 7.9375 8.4375 C9.91895986 12.63530402 11.3804463 14.34922952 15.5625 16.5 C15.5625 17.82 15.5625 19.14 15.5625 20.5 C16.2225 20.5 16.8825 20.5 17.5625 20.5 C20.94337137 25.57130705 19.88966659 31.54536618 19.875 37.5 C19.89111328 38.77746094 19.90722656 40.05492187 19.92382812 41.37109375 C19.9274156 48.38102937 19.4081992 54.53957999 17.26269531 61.23046875 C16.60881955 63.34986523 16.2491753 65.30179595 16 67.5 C15.5625 70.5 15.5625 70.5 13.5625 73.5 C13.18095057 75.64573931 13.18095057 75.64573931 13.0625 77.9375 C12.83359874 81.31951617 12.15334542 83.51716484 10.5625 86.5 C10.2325 87.655 9.9025 88.81 9.5625 90 C8.76156735 92.80326427 7.846059 94.932882 6.5625 97.5 C6.17078247 99.15391846 5.84192455 100.82345271 5.5625 102.5 C5.2840625 104.1396875 5.2840625 104.1396875 5 105.8125 C4.855625 106.699375 4.71125 107.58625 4.5625 108.5 C6.0475 108.995 6.0475 108.995 7.5625 109.5 C7.5625 110.16 7.5625 110.82 7.5625 111.5 C9.0475 111.995 9.0475 111.995 10.5625 112.5 C12.5625 115.5 12.5625 115.5 12.5625 119.5 C13.2225 119.5 13.8825 119.5 14.5625 119.5 C15.0575 123.955 15.0575 123.955 15.5625 128.5 C14.9025 128.83 14.2425 129.16 13.5625 129.5 C10 128.25 10 128.25 6.5625 126.5 C6.2325 125.51 5.9025 124.52 5.5625 123.5 C3.01079129 121.9161808 0.48643881 121.12655832 -2.4375 120.5 C-2.4375 121.16 -2.4375 121.82 -2.4375 122.5 C-3.0975 122.5 -3.7575 122.5 -4.4375 122.5 C-4.1075 123.82 -3.7775 125.14 -3.4375 126.5 C-4.0975 126.5 -4.7575 126.5 -5.4375 126.5 C-5.4375 127.49 -5.4375 128.48 -5.4375 129.5 C-6.0975 129.5 -6.7575 129.5 -7.4375 129.5 C-7.9325 132.47 -7.9325 132.47 -8.4375 135.5 C-9.0975 135.5 -9.7575 135.5 -10.4375 135.5 C-10.581875 136.28375 -10.72625 137.0675 -10.875 137.875 C-11.4375 140.5 -11.4375 140.5 -12.4375 142.5 C-13.0975 142.5 -13.7575 142.5 -14.4375 142.5 C-14.540625 143.593125 -14.64375 144.68625 -14.75 145.8125 C-15.4375 149.5 -15.4375 149.5 -16.875 151.4375 C-18.4375 152.5 -18.4375 152.5 -20.4375 152.5 C-20.57865234 153.60408203 -20.57865234 153.60408203 -20.72265625 154.73046875 C-21.54282996 157.90808164 -22.68659933 159.39661485 -24.875 161.8125 C-25.80119141 162.85857422 -25.80119141 162.85857422 -26.74609375 163.92578125 C-28.4375 165.5 -28.4375 165.5 -30.4375 165.5 C-30.499375 166.20125 -30.56125 166.9025 -30.625 167.625 C-32.02228695 172.56924614 -35.23711948 175.69974632 -39.4375 178.5 C-40.7575 178.5 -42.0775 178.5 -43.4375 178.5 C-43.4375 179.16 -43.4375 179.82 -43.4375 180.5 C-45.4175 180.83 -47.3975 181.16 -49.4375 181.5 C-49.4375 182.16 -49.4375 182.82 -49.4375 183.5 C-50.4275 183.5 -51.4175 183.5 -52.4375 183.5 C-52.4375 184.16 -52.4375 184.82 -52.4375 185.5 C-58.7075 185.5 -64.9775 185.5 -71.4375 185.5 C-71.4375 184.84 -71.4375 184.18 -71.4375 183.5 C-72.4584375 183.3453125 -72.4584375 183.3453125 -73.5 183.1875 C-79.08756797 181.87977133 -83.77285407 180.04416095 -87.4375 175.5 C-87.4375 174.84 -87.4375 174.18 -87.4375 173.5 C-88.4275 173.17 -89.4175 172.84 -90.4375 172.5 C-92.92878209 168.34991869 -94.16758146 164.27181775 -95.1875 159.5625 C-95.45046875 158.39847656 -95.7134375 157.23445312 -95.984375 156.03515625 C-96.46608838 152.27696138 -96.13847224 149.20852205 -95.4375 145.5 C-94.7775 145.5 -94.1175 145.5 -93.4375 145.5 C-93.458125 144.365625 -93.47875 143.23125 -93.5 142.0625 C-93.4375 138.5 -93.4375 138.5 -92.4375 137.5 C-92.4375 136.84 -92.4375 136.18 -92.4375 135.5 C-91.7775 135.5 -91.1175 135.5 -90.4375 135.5 C-89.4475 133.52 -89.4475 133.52 -88.4375 131.5 C-87.7775 131.5 -87.1175 131.5 -86.4375 131.5 C-86.31375 130.9225 -86.19 130.345 -86.0625 129.75 C-84.69673328 124.8332398 -82.37995983 121.80066404 -78.4375 118.5 C-75.625 118.1875 -75.625 118.1875 -73.4375 118.5 C-72.9425 117.015 -72.9425 117.015 -72.4375 115.5 C-70.625 114.40234375 -70.625 114.40234375 -68.4375 113.4375 C-65.2860304 112.17769923 -65.2860304 112.17769923 -63.4375 109.5 C-61.4575 109.005 -61.4575 109.005 -59.4375 108.5 C-62.4075 108.17 -65.3775 107.84 -68.4375 107.5 C-68.4375 107.17 -68.4375 106.84 -68.4375 106.5 C-69.30375 106.273125 -70.17 106.04625 -71.0625 105.8125 C-75.10323255 104.24110401 -77.30947109 102.47907516 -80.4375 99.5 C-80.4375 98.84 -80.4375 98.18 -80.4375 97.5 C-81.4275 97.17 -82.4175 96.84 -83.4375 96.5 C-90.33972605 85.62438565 -91.33135391 75.91526454 -89.4375 63.5 C-89.13580934 62.15915264 -88.82232319 60.8193938 -88.4375 59.5 C-87.7775 59.5 -87.1175 59.5 -86.4375 59.5 C-86.458125 58.71625 -86.47875 57.9325 -86.5 57.125 C-86.4375 54.5 -86.4375 54.5 -85.4375 52.5 C-84.7775 52.5 -84.1175 52.5 -83.4375 52.5 C-83.4375 50.85 -83.4375 49.2 -83.4375 47.5 C-81.9525 47.005 -81.9525 47.005 -80.4375 46.5 C-79.32069294 43.65020361 -79.32069294 43.65020361 -78.4375 40.5 C-77.79934656 39.15278717 -77.14424629 37.81252882 -76.4375 36.5 C-75.4475 36.5 -74.4575 36.5 -73.4375 36.5 C-72.75042445 34.00935112 -72.4375 32.12113708 -72.4375 29.5 C-71.0625 27.8125 -71.0625 27.8125 -69.4375 26.5 C-68.7775 26.5 -68.1175 26.5 -67.4375 26.5 C-67.07978516 25.65115234 -67.07978516 25.65115234 -66.71484375 24.78515625 C-65.1652243 22.01290127 -63.27714175 20.14733707 -61 17.9375 C-60.21753906 17.17308594 -59.43507813 16.40867187 -58.62890625 15.62109375 C-57.90574219 14.92113281 -57.18257812 14.22117187 -56.4375 13.5 C-55.43530943 12.50219538 -54.43428975 11.50319998 -53.4375 10.5 C-52.4475 10.83 -51.4575 11.16 -50.4375 11.5 C-49.715625 10.675 -48.99375 9.85 -48.25 9 C-45.4375 6.5 -45.4375 6.5 -42.625 6.1875 C-41.903125 6.290625 -41.18125 6.39375 -40.4375 6.5 C-40.19 5.88125 -39.9425 5.2625 -39.6875 4.625 C-38.23121361 2.14931313 -37.05937494 1.54874998 -34.4375 0.5 C-33.7775 1.16 -33.1175 1.82 -32.4375 2.5 C-32.4375 1.84 -32.4375 1.18 -32.4375 0.5 C-27.9825 0.005 -27.9825 0.005 -23.4375 -0.5 C-23.4375 -1.16 -23.4375 -1.82 -23.4375 -2.5 C-15.8690808 -5.0228064 -7.15640185 -3.12279353 0 0 Z M-11.4375 19.5 C-12.241875 19.45875 -13.04625 19.4175 -13.875 19.375 C-17.03854427 19.52931923 -18.04858186 20.49639124 -20.4375 22.5 C-21.75586295 23.19580267 -23.08541086 23.87224433 -24.4375 24.5 C-24.4375 25.16 -24.4375 25.82 -24.4375 26.5 C-25.159375 26.768125 -25.88125 27.03625 -26.625 27.3125 C-32.53273473 29.80687688 -36.64195285 33.33960697 -41.125 37.8125 C-41.70572266 38.36873047 -42.28644531 38.92496094 -42.88476562 39.49804688 C-46.34386628 42.93315377 -48.29318184 45.62003676 -49.4375 50.5 C-50.0975 50.5 -50.7575 50.5 -51.4375 50.5 C-51.52 51.11875 -51.6025 51.7375 -51.6875 52.375 C-51.935 53.07625 -52.1825 53.7775 -52.4375 54.5 C-53.07042969 54.79132813 -53.70335937 55.08265625 -54.35546875 55.3828125 C-56.9213467 56.75962506 -57.37781366 57.85727545 -58.5 60.5 C-59.89783162 63.76360688 -60.31340522 64.41727014 -63.4375 66.5 C-63.6877157 69.58365871 -63.6877157 69.58365871 -63.4375 72.5 C-64.9225 72.995 -64.9225 72.995 -66.4375 73.5 C-67.57320414 76.76447971 -67.57320414 76.76447971 -68.4375 80.5 C-69.09322791 82.50361307 -69.75625294 84.50491933 -70.4375 86.5 C-69.7775 86.5 -69.1175 86.5 -68.4375 86.5 C-68.4375 87.16 -68.4375 87.82 -68.4375 88.5 C-66.9525 88.005 -66.9525 88.005 -65.4375 87.5 C-65.4375 87.17 -65.4375 86.84 -65.4375 86.5 C-62.36132812 86.20703125 -62.36132812 86.20703125 -59.28515625 85.9140625 C-58.37056641 85.70910156 -58.37056641 85.70910156 -57.4375 85.5 C-56.9425 84.51 -56.9425 84.51 -56.4375 83.5 C-54.9525 83.005 -54.9525 83.005 -53.4375 82.5 C-53.1075 81.84 -52.7775 81.18 -52.4375 80.5 C-51.65681152 80.36368164 -50.87612305 80.22736328 -50.07177734 80.08691406 C-46.93265106 79.38752022 -46.23834504 78.60156789 -44.2890625 76.109375 C-39.79384322 70.65280671 -34.81884421 65.73530915 -29.8125 60.75 C-28.4203125 59.35201172 -28.4203125 59.35201172 -27 57.92578125 C-26.10023437 57.02730469 -25.20046875 56.12882812 -24.2734375 55.203125 C-23.46438965 54.39520508 -22.6553418 53.58728516 -21.82177734 52.75488281 C-19.4375 50.5 -19.4375 50.5 -16.63525391 48.45605469 C-15.90999512 47.81055664 -15.18473633 47.16505859 -14.4375 46.5 C-14.4375 45.18 -14.4375 43.86 -14.4375 42.5 C-12.5625 40.9375 -12.5625 40.9375 -10.4375 39.5 C-8.37664359 36.80313547 -8.37664359 36.80313547 -8 34.5 C-7.4375 32.5 -7.4375 32.5 -5.875 31.125 C-4.10613275 29.46237867 -4.10613275 29.46237867 -4.25 26.3125 C-4.311875 25.384375 -4.37375 24.45625 -4.4375 23.5 C-3.4475 23.5 -2.4575 23.5 -1.4375 23.5 C-1.1075 21.85 -0.7775 20.2 -0.4375 18.5 C-2.3246875 18.4690625 -2.3246875 18.4690625 -4.25 18.4375 C-5.31154297 18.42009766 -5.31154297 18.42009766 -6.39453125 18.40234375 C-8.64055461 18.41736783 -8.64055461 18.41736783 -11.4375 19.5 Z M-28.4375 23.5 C-27.4375 25.5 -27.4375 25.5 -27.4375 25.5 Z M-38.4375 30.5 C-37.4375 32.5 -37.4375 32.5 -37.4375 32.5 Z M-44.4375 36.5 C-43.4375 38.5 -43.4375 38.5 -43.4375 38.5 Z M-54.4375 49.5 C-54.4375 50.16 -54.4375 50.82 -54.4375 51.5 C-55.4275 51.995 -55.4275 51.995 -56.4375 52.5 C-55.4475 52.5 -54.4575 52.5 -53.4375 52.5 C-53.7675 51.51 -54.0975 50.52 -54.4375 49.5 Z M-13.4375 64.5 C-13.1075 65.16 -12.7775 65.82 -12.4375 66.5 C-12.1075 65.84 -11.7775 65.18 -11.4375 64.5 C-12.0975 64.5 -12.7575 64.5 -13.4375 64.5 Z M-8.4375 64.5 C-12.90785323 69.14916736 -17.38219981 74.33409944 -19.4375 80.5 C-20.4275 80.83 -21.4175 81.16 -22.4375 81.5 C-22.4375 82.16 -22.4375 82.82 -22.4375 83.5 C-23.4275 83.83 -24.4175 84.16 -25.4375 84.5 C-26.79136936 86.15002828 -28.12428142 87.8174387 -29.4375 89.5 C-30.4275 90.16 -31.4175 90.82 -32.4375 91.5 C-32.4375 92.16 -32.4375 92.82 -32.4375 93.5 C-34.0153125 93.809375 -34.0153125 93.809375 -35.625 94.125 C-40.08157236 95.35689805 -41.79593582 97.81781963 -44.4375 101.5 C-41.11215243 102.60844919 -38.81567425 102.34454356 -35.4375 101.5 C-35.4375 100.84 -35.4375 100.18 -35.4375 99.5 C-34.40109375 99.48582031 -33.3646875 99.47164062 -32.296875 99.45703125 C-30.92703943 99.41011907 -29.55724913 99.36187173 -28.1875 99.3125 C-27.16462891 99.30379883 -27.16462891 99.30379883 -26.12109375 99.29492188 C-22.38123596 99.13153003 -20.75965314 98.8226865 -18.078125 96.13671875 C-17.53671875 95.26660156 -16.9953125 94.39648438 -16.4375 93.5 C-15.7775 92.51 -15.1175 91.52 -14.4375 90.5 C-13.98610541 88.4507906 -13.98610541 88.4507906 -13.8125 86.3125 C-13.68875 85.054375 -13.565 83.79625 -13.4375 82.5 C-12.7775 82.5 -12.1175 82.5 -11.4375 82.5 C-10.7775 78.21 -10.1175 73.92 -9.4375 69.5 C-8.7775 69.5 -8.1175 69.5 -7.4375 69.5 C-7.4375 67.85 -7.4375 66.2 -7.4375 64.5 C-7.7675 64.5 -8.0975 64.5 -8.4375 64.5 Z M-67.4375 68.5 C-67.7675 69.49 -68.0975 70.48 -68.4375 71.5 C-67.7775 71.5 -67.1175 71.5 -66.4375 71.5 C-66.7675 70.51 -67.0975 69.52 -67.4375 68.5 Z M-18.4375 72.5 C-18.4375 73.16 -18.4375 73.82 -18.4375 74.5 C-19.4275 74.995 -19.4275 74.995 -20.4375 75.5 C-19.4475 75.5 -18.4575 75.5 -17.4375 75.5 C-17.7675 74.51 -18.0975 73.52 -18.4375 72.5 Z M-21.4375 76.5 C-20.4375 78.5 -20.4375 78.5 -20.4375 78.5 Z M-24.4375 79.5 C-23.4375 81.5 -23.4375 81.5 -23.4375 81.5 Z M-41.4375 93.5 C-41.7675 94.16 -42.0975 94.82 -42.4375 95.5 C-41.7775 95.5 -41.1175 95.5 -40.4375 95.5 C-40.7675 94.84 -41.0975 94.18 -41.4375 93.5 Z M-18.4375 96.5 C-18.7675 97.16 -19.0975 97.82 -19.4375 98.5 C-18.7775 98.5 -18.1175 98.5 -17.4375 98.5 C-17.7675 97.84 -18.0975 97.18 -18.4375 96.5 Z M-63.4375 105.5 C-63.4375 105.83 -63.4375 106.16 -63.4375 106.5 C-61.1275 106.5 -58.8175 106.5 -56.4375 106.5 C-56.4375 106.17 -56.4375 105.84 -56.4375 105.5 C-58.7475 105.5 -61.0575 105.5 -63.4375 105.5 Z M-43.32421875 119.81640625 C-45.34723664 120.47080206 -47.36924285 121.00978104 -49.4375 121.5 C-49.4375 122.16 -49.4375 122.82 -49.4375 123.5 C-50.035625 123.644375 -50.63375 123.78875 -51.25 123.9375 C-52.99900404 124.3872439 -54.72427023 124.92892341 -56.4375 125.5 C-56.4375 126.16 -56.4375 126.82 -56.4375 127.5 C-57.51 127.726875 -58.5825 127.95375 -59.6875 128.1875 C-63.96373306 129.68418157 -64.84984586 130.9106733 -67.4375 134.5 C-68.45946093 135.35738541 -69.5024043 136.19024016 -70.5625 137 C-73.52401239 139.57522816 -74.25882772 140.87331606 -75.4375 144.5 C-75.97375 145.36625 -76.51 146.2325 -77.0625 147.125 C-78.68801814 149.47532776 -78.68801814 149.47532776 -78.4375 152.5 C-79.0975 152.5 -79.7575 152.5 -80.4375 152.5 C-80.49172947 153.9370809 -80.53039723 155.37475462 -80.5625 156.8125 C-80.58570313 157.61300781 -80.60890625 158.41351563 -80.6328125 159.23828125 C-80.59567322 161.78388576 -80.59567322 161.78388576 -78.4375 164.5 C-76.46002878 164.86297936 -76.46002878 164.86297936 -74.3125 164.6875 C-73.03375 164.625625 -71.755 164.56375 -70.4375 164.5 C-70.1075 163.84 -69.7775 163.18 -69.4375 162.5 C-67.11434969 161.7986716 -64.77960921 161.13514826 -62.4375 160.5 C-56.78553958 158.17272218 -52.64243292 153.81005624 -48.4375 149.5 C-47.53 148.695625 -46.6225 147.89125 -45.6875 147.0625 C-43.11607318 144.13393057 -42.70489047 142.33259671 -42.4375 138.5 C-41.7775 138.5 -41.1175 138.5 -40.4375 138.5 C-38.27083333 136.66666667 -38.27083333 136.66666667 -36.4375 134.5 C-36.4375 133.84 -36.4375 133.18 -36.4375 132.5 C-35.7775 132.5 -35.1175 132.5 -34.4375 132.5 C-33.33209074 129.71081851 -33.33209074 129.71081851 -33.4375 127.5 C-32.4475 126.84 -31.4575 126.18 -30.4375 125.5 C-28.4063217 122.34038931 -27.94015238 119.18611749 -27.4375 115.5 C-32.73672115 115.5 -38.35008532 118.11124151 -43.32421875 119.81640625 Z M-11.4375 131.5 C-11.7675 132.49 -12.0975 133.48 -12.4375 134.5 C-11.7775 134.5 -11.1175 134.5 -10.4375 134.5 C-10.7675 133.51 -11.0975 132.52 -11.4375 131.5 Z M-70.4375 132.5 C-69.4375 134.5 -69.4375 134.5 -69.4375 134.5 Z M-41.4375 139.5 C-41.4375 142.5 -41.4375 142.5 -41.4375 142.5 Z M-34.4375 168.5 C-33.4375 170.5 -33.4375 170.5 -33.4375 170.5 Z M-38.4375 172.5 C-37.4375 174.5 -37.4375 174.5 -37.4375 174.5 Z " fill="#F5F6F6" transform="translate(1144.4375,75.5)"/>
<path d="M0 0 C1.67299959 0.65061095 3.33859237 1.32033324 5 2 C5.721875 2.28875 6.44375 2.5775 7.1875 2.875 C9.48666356 4.30206704 9.94195768 5.53123458 11 8 C11.556875 8.763125 12.11375 9.52625 12.6875 10.3125 C14.44534616 13.91189928 13.86966105 16.15899701 13 20 C12.67 20.66 12.34 21.32 12 22 C11.34 22 10.68 22 10 22 C10.185625 22.9075 10.37125 23.815 10.5625 24.75 C10.95734621 27.68314324 10.94691572 29.2644657 10 32 C9.01 32 8.02 32 7 32 C7 32.99 7 33.98 7 35 C11.10823986 31.56249318 15.01465648 28.01906101 18.765625 24.1953125 C19.43070068 23.51799072 20.09577637 22.84066895 20.78100586 22.14282227 C22.12963836 20.76177461 23.47168603 19.37426427 24.80688477 17.98022461 C25.74745728 17.01741577 25.74745728 17.01741577 26.70703125 16.03515625 C27.2688208 15.4512915 27.83061035 14.86742676 28.40942383 14.26586914 C30 13 30 13 33 13 C34.8754465 11.25509502 36.50140174 9.3641631 38.18359375 7.43359375 C38.78300781 6.96050781 39.38242187 6.48742187 40 6 C42.22265625 6.28515625 42.22265625 6.28515625 44 7 C44 6.34 44 5.68 44 5 C46.97 4.505 46.97 4.505 50 4 C50 3.34 50 2.68 50 2 C61.14892893 -0.0224429 61.14892893 -0.0224429 65.57421875 2.421875 C67.54607272 4.18597356 69.29393184 5.980481 71 8 C71.99 8.99 71.99 8.99 73 10 C73.125 12.625 73.125 12.625 73 15 C73.66 15 74.32 15 75 15 C75 18.3 75 21.6 75 25 C74.34 25 73.68 25 73 25 C73.020625 26.27875 73.04125 27.5575 73.0625 28.875 C73.125 32.75 73.125 32.75 72 35 C71.34 35 70.68 35 70 35 C69.855625 36.093125 69.71125 37.18625 69.5625 38.3125 C69 42 69 42 68 45 C67.34 45 66.68 45 66 45 C65.67 46.98 65.34 48.96 65 51 C64.34 51 63.68 51 63 51 C62.67 53.31 62.34 55.62 62 58 C61.34 58 60.68 58 60 58 C59.9175 58.886875 59.835 59.77375 59.75 60.6875 C58.92714141 66.63173222 56.83990344 72.30913586 55 78 C54.34 78 53.68 78 53 78 C53.165 78.9075 53.33 79.815 53.5 80.75 C54.0114343 84.16416952 53.97199443 87.42728878 53.875 90.875 C53.79999006 95.85691049 54.55468096 99.60625503 56.5390625 104.16015625 C56.69117188 104.76730469 56.84328125 105.37445313 57 106 C56.34 106.99 55.68 107.98 55 109 C48.13878903 109.84014828 41.68107488 107.78738325 36 104 C36 103.34 36 102.68 36 102 C34.515 101.505 34.515 101.505 33 101 C29.93332816 94.86665632 28.85810583 89.61240151 28.875 82.8125 C28.87113281 81.24435547 28.87113281 81.24435547 28.8671875 79.64453125 C29 77 29 77 30 75 C29.34 74.67 28.68 74.34 28 74 C28.66 74 29.32 74 30 74 C30 70.7 30 67.4 30 64 C30.66 64 31.32 64 32 64 C32.495 63.01 32.495 63.01 33 62 C32.34 61.67 31.68 61.34 31 61 C31.66 61 32.32 61 33 61 C33 59.68 33 58.36 33 57 C33.99 56.01 33.99 56.01 35 55 C37.47432495 50.48166748 39.25082999 45.83104097 41 41 C41.66 41 42.32 41 43 41 C43.4640625 39.6078125 43.4640625 39.6078125 43.9375 38.1875 C44.625 36.125 45.3125 34.0625 46 32 C46.99 31.505 46.99 31.505 48 31 C48.2165625 30.071875 48.2165625 30.071875 48.4375 29.125 C49.09717457 26.63289608 50.08288629 25.6670554 52 24 C51.505 23.01 51.505 23.01 51 22 C49.515 22.495 49.515 22.495 48 23 C48 23.66 48 24.32 48 25 C47.1646875 25.0928125 47.1646875 25.0928125 46.3125 25.1875 C43.02727058 26.34176979 41.392197 28.49388886 39 31 C33.51219512 36 33.51219512 36 31 36 C31 36.66 31 37.32 31 38 C29.68 38 28.36 38 27 38 C26.79375 38.53625 26.5875 39.0725 26.375 39.625 C24.46749574 42.91978009 21.95180616 45.59363628 19 48 C18.34 48 17.68 48 17 48 C16.94457031 48.70382813 16.88914062 49.40765625 16.83203125 50.1328125 C15.72653374 53.9423673 13.41984927 56.139116 10.6875 58.875 C6.62787266 62.97226627 3.70068838 66.88088046 1 72 C0.34 72 -0.32 72 -1 72 C-1.20625 72.53625 -1.4125 73.0725 -1.625 73.625 C-2.93257021 75.88353037 -4.12462687 77.16733073 -6 78.9375 C-8.61988728 81.45589044 -9.81312798 83.53068177 -11 87 C-12.5 89.3125 -12.5 89.3125 -14 91 C-14.66 91 -15.32 91 -16 91 C-16.12375 91.5775 -16.2475 92.155 -16.375 92.75 C-17.00648824 95.02335767 -17.88858191 96.9253529 -19 99 C-19.66 99 -20.32 99 -21 99 C-21.2475 99.5775 -21.495 100.155 -21.75 100.75 C-23.26466783 103.4764021 -24.46404752 105.14944008 -27 107 C-31.4084132 107.08163728 -33.58793422 106.27735197 -37.25 103.8125 C-41.14666396 99.82727549 -43.14478631 96.53486833 -43.25 90.9375 C-43.05265119 87.82925624 -42.75293178 85.01172711 -42 82 C-41.34 82 -40.68 82 -40 82 C-40.309375 80.948125 -40.309375 80.948125 -40.625 79.875 C-41.08389078 76.35683738 -40.39601248 74.23287101 -39 71 C-38.01 70.505 -38.01 70.505 -37 70 C-36.34227572 66.97065509 -36.34227572 66.97065509 -36 64 C-35.34 64 -34.68 64 -34 64 C-33.67 63.34 -33.34 62.68 -33 62 C-33.66 61.67 -34.32 61.34 -35 61 C-33.625 59.5 -33.625 59.5 -32 58 C-31.34 58 -30.68 58 -30 58 C-30.2475 57.4225 -30.495 56.845 -30.75 56.25 C-30.87375 55.13625 -30.87375 55.13625 -31 54 C-29.68870078 52.64499081 -28.35308313 51.31328657 -27 50 C-26.61500109 48.34450469 -26.27206865 46.6777567 -26 45 C-25.01 44.505 -25.01 44.505 -24 44 C-22.75230162 41.85118612 -22 40.50320403 -22 38 C-21.34 37.360625 -20.68 36.72125 -20 36.0625 C-17.65192708 34.11987668 -17.65192708 34.11987668 -18 31 C-17.34 31 -16.68 31 -16 31 C-15.7834375 30.1028125 -15.7834375 30.1028125 -15.5625 29.1875 C-14.46077982 24.90303263 -12.83113368 22.37909503 -10 19 C-10.66 18.67 -11.32 18.34 -12 18 C-9.525 15.525 -9.525 15.525 -7 13 C-7.495 12.01 -7.495 12.01 -8 11 C-7.34 11 -6.68 11 -6 11 C-4.98048793 8.21001697 -4.98048793 8.21001697 -4.6875 6.0625 C-3.76875461 3.30626384 -2.12770933 1.92180198 0 0 Z M72 22 C71.67 22.66 71.34 23.32 71 24 C71.66 24 72.32 24 73 24 C72.67 23.34 72.34 22.68 72 22 Z M6 28 C7 30 7 30 7 30 Z M19 42 C18.67 42.66 18.34 43.32 18 44 C18.66 44 19.32 44 20 44 C19.67 43.34 19.34 42.68 19 42 Z M59 54 C60 56 60 56 60 56 Z M9 55 C10 57 10 57 10 57 Z M6 57 C7 60 7 60 7 60 Z M-1 68 C0 70 0 70 0 70 Z M-4 71 C-3 74 -3 74 -3 74 Z M-7 75 C-6 77 -6 77 -6 77 Z M-14 84 C-14.99 84.495 -14.99 84.495 -16 85 C-16 85.66 -16 86.32 -16 87 C-15.01 87 -14.02 87 -13 87 C-13.33 86.01 -13.66 85.02 -14 84 Z M52 100 C53 102 53 102 53 102 Z M-27 101 C-26 103 -26 103 -26 103 Z M51 105 C52 107 52 107 52 107 Z " fill="#F5F6F6" transform="translate(482,74)"/>
<path d="M0 0 C7.65217391 2.43478261 7.65217391 2.43478261 10 4 C10.3721042 5.32303717 10.70630173 6.65737935 11 8 C11.99 8.66 12.98 9.32 14 10 C15.11528 16.59327297 14.04067304 22.16190776 11 28 C10.505 29.485 10.505 29.485 10 31 C9.01 31.495 9.01 31.495 8 32 C7.67 32.99 7.34 33.98 7 35 C7.99 35 8.98 35 10 35 C10 34.34 10 33.68 10 33 C10.66 33 11.32 33 12 33 C12.20625 32.46890625 12.4125 31.9378125 12.625 31.390625 C14.57961192 27.99226564 17.22123717 25.48944072 20 22.75 C20.5465625 22.19570312 21.093125 21.64140625 21.65625 21.0703125 C25.7466133 17 25.7466133 17 28 17 C28 16.34 28 15.68 28 15 C28.74636719 14.91878906 29.49273438 14.83757812 30.26171875 14.75390625 C33.60985795 13.83209332 34.65095749 12.60764075 36.8125 9.9375 C37.71935547 8.83728516 37.71935547 8.83728516 38.64453125 7.71484375 C39.09183594 7.14894531 39.53914063 6.58304687 40 6 C40.99 6.33 41.98 6.66 43 7 C43.66 6.34 44.32 5.68 45 5 C46.9812585 4.27954236 48.98504093 3.61998741 51 3 C51.94875 2.62875 52.8975 2.2575 53.875 1.875 C57.97882399 0.72592928 60.72872087 0.52541343 65 1 C67.75 3.375 67.75 3.375 70 6 C71.32 6.66 72.64 7.32 74 8 C74 16.58 74 25.16 74 34 C73.34 34 72.68 34 72 34 C72 35.32 72 36.64 72 38 C71.34 38 70.68 38 70 38 C69.896875 38.680625 69.79375 39.36125 69.6875 40.0625 C68.64097214 44.53402812 67.2833017 48.7166983 64 52 C63.35232207 54.57061311 63.35232207 54.57061311 63 57 C61.515 57.495 61.515 57.495 60 58 C60.04125 59.093125 60.0825 60.18625 60.125 61.3125 C60 65 60 65 58 68 C57.40176573 70.00461288 57.40176573 70.00461288 57 72.1875 C56.38422188 75.20285795 55.69591737 78.15929149 54.875 81.125 C53.35303087 87.86514899 54.02564511 92.43856955 56.328125 98.78125 C57.30531347 102.00824448 57.27911877 104.65057478 57 108 C56 109 56 109 52.4375 109.25 C45.63545243 109.1524796 39.89357864 106.75376211 35 102 C33.94895617 100.36504293 32.94011682 98.70116376 32 97 C31.34 96.34 30.68 95.68 30 95 C29.65912303 92.32337473 29.43659114 89.7503719 29.3125 87.0625 C29.2727002 86.29921387 29.23290039 85.53592773 29.19189453 84.74951172 C28.88397198 77.76158515 28.76844689 70.69465932 31 64 C31.66 64 32.32 64 33 64 C34.56272189 59.60746227 34.56272189 59.60746227 35 55 C35.66 54.67 36.32 54.34 37 54 C37.67375452 51.911361 38 50.19636905 38 48 C38.66 48 39.32 48 40 48 C41.43850532 45.4312405 42.21998727 43.18879696 43 40.3125 C43.33 39.219375 43.66 38.12625 44 37 C44.66 36.67 45.32 36.34 46 36 C45.67 35.34 45.34 34.68 45 34 C45.66 34 46.32 34 47 34 C48.15811388 31.05270463 48.15811388 31.05270463 48 28 C49.6459651 26.31288577 51.31237149 24.6454378 53 23 C53 22.34 53 21.68 53 21 C52.071875 21.78375 51.14375 22.5675 50.1875 23.375 C44.71052632 28 44.71052632 28 41 28 C40.773125 28.5775 40.54625 29.155 40.3125 29.75 C38.65151778 32.59739809 36.68475439 34.12067193 34 36 C33.34 36 32.68 36 32 36 C31.67 36.99 31.34 37.98 31 39 C30.34 38.67 29.68 38.34 29 38 C27.11285581 38 25.88903067 39.93680299 24.625 41.1875 C19.80287524 45.84625552 19.80287524 45.84625552 18 52 C15.57186004 54.56689082 13.02860638 56.97348677 10.4375 59.375 C7.62024456 62.4089674 5.932112 65.35045511 4 69 C3.34 69 2.68 69 2 69 C2 69.99 2 70.98 2 72 C0.57421875 73.359375 0.57421875 73.359375 -1.3125 74.75 C-4.01865486 76.92254686 -5.51479006 78.56089329 -6.75 81.8125 C-7.1625 82.864375 -7.575 83.91625 -8 85 C-8.99 85.33 -9.98 85.66 -11 86 C-11.33 86.66 -11.66 87.32 -12 88 C-12.33 88.66 -12.66 89.32 -13 90 C-14.485 90.495 -14.485 90.495 -16 91 C-16.09410156 91.73992187 -16.18820312 92.47984375 -16.28515625 93.2421875 C-17.10494267 96.4048608 -18.21403635 97.76748137 -20.4375 100.125 C-22.54234261 102.38364113 -24.27704498 104.41556748 -26 107 C-29.11259424 107.65147321 -31.08280448 107.54798546 -33.84375 105.8984375 C-38.10453032 102.52231072 -40.4690013 99.31346607 -42 94 C-42.55746559 88.77600796 -42.15405329 84.81494265 -40 80 C-39.6503582 77.66905466 -39.31445513 75.33595238 -39 73 C-38 72 -38 72 -36 71 C-36 69.35 -36 67.7 -36 66 C-35.01 65.505 -35.01 65.505 -34 65 C-31.48305067 60.51326423 -29.74620647 55.82285596 -28 51 C-27.34 51 -26.68 51 -26 51 C-26 49.35 -26 47.7 -26 46 C-25.34 46.33 -24.68 46.66 -24 47 C-23.896875 46.4225 -23.79375 45.845 -23.6875 45.25 C-22.90207202 42.67950842 -21.69495803 41.06342716 -20 39 C-20.66 38.67 -21.32 38.34 -22 38 C-21.01 38 -20.02 38 -19 38 C-18.855625 37.401875 -18.71125 36.80375 -18.5625 36.1875 C-17.73826379 32.98213696 -16.856619 30.7849285 -15 28 C-14.34 28 -13.68 28 -13 28 C-13 26.35 -13 24.7 -13 23 C-12.34 22.67 -11.68 22.34 -11 22 C-9.43999066 18.63142283 -9.43999066 18.63142283 -9 15 C-8.34 14.67 -7.68 14.34 -7 14 C-6.27306096 12.02111039 -5.60183749 10.02045442 -5 8 C-4.34 8 -3.68 8 -3 8 C-3.061875 7.236875 -3.12375 6.47375 -3.1875 5.6875 C-3 3 -3 3 -1.5 1.1875 C-1.005 0.795625 -0.51 0.40375 0 0 Z M29 16 C28.67 16.66 28.34 17.32 28 18 C28.66 18 29.32 18 30 18 C29.67 17.34 29.34 16.68 29 16 Z M46 22 C46.33 22.66 46.66 23.32 47 24 C47.33 23.34 47.66 22.68 48 22 C47.34 22 46.68 22 46 22 Z M38 27 C37.67 27.66 37.34 28.32 37 29 C37.99 28.67 38.98 28.34 40 28 C39.34 27.67 38.68 27.34 38 27 Z M-28 52 C-27 54 -27 54 -27 54 Z M10 55 C9.34 55.66 8.68 56.32 8 57 C9.32 56.67 10.64 56.34 12 56 C11.34 55.67 10.68 55.34 10 55 Z M2 64 C2 64.99 2 65.98 2 67 C2.66 67 3.32 67 4 67 C4 66.01 4 65.02 4 64 C3.34 64 2.68 64 2 64 Z M56 64 C56 64.66 56 65.32 56 66 C55.01 66.495 55.01 66.495 54 67 C54.99 67 55.98 67 57 67 C56.67 66.01 56.34 65.02 56 64 Z M-1 68 C-0.34 68.66 0.32 69.32 1 70 C1 69.34 1 68.68 1 68 C0.34 68 -0.32 68 -1 68 Z M-10 81 C-9 83 -9 83 -9 83 Z M51 105 C50.34 105.66 49.68 106.32 49 107 C49.99 107 50.98 107 52 107 C51.67 106.34 51.34 105.68 51 105 Z " fill="#F5F7F7" transform="translate(1206,74)"/>
<path d="M0 0 C3.3125 1.1875 3.3125 1.1875 5.125 3.5625 C5.7128125 4.861875 5.7128125 4.861875 6.3125 6.1875 C6.9725 7.1775 7.6325 8.1675 8.3125 9.1875 C8.50829901 12.04098257 8.59122159 14.77438241 8.5625 17.625 C8.57410156 18.7706543 8.57410156 18.7706543 8.5859375 19.93945312 C8.57239495 23.82955203 8.5578689 26.84617723 6.3125 30.1875 C5.6525 30.1875 4.9925 30.1875 4.3125 30.1875 C4.8075 31.6725 4.8075 31.6725 5.3125 33.1875 C4.06232857 35.64154022 2.7885125 37.87849035 1.3125 40.1875 C0.77302734 41.07308594 0.77302734 41.07308594 0.22265625 41.9765625 C-0.68471989 43.4215162 -1.67995381 44.81052021 -2.6875 46.1875 C-3.3475 46.1875 -4.0075 46.1875 -4.6875 46.1875 C-4.6875 47.8375 -4.6875 49.4875 -4.6875 51.1875 C-5.3475 51.1875 -6.0075 51.1875 -6.6875 51.1875 C-6.6875 51.8475 -6.6875 52.5075 -6.6875 53.1875 C-7.3475 53.1875 -8.0075 53.1875 -8.6875 53.1875 C-9.0175 55.1675 -9.3475 57.1475 -9.6875 59.1875 C-10.3475 59.1875 -11.0075 59.1875 -11.6875 59.1875 C-11.77 60.0125 -11.8525 60.8375 -11.9375 61.6875 C-12.85197269 65.95503921 -14.60973178 69.37986894 -16.6875 73.1875 C-17.3475 73.1875 -18.0075 73.1875 -18.6875 73.1875 C-19.0175 75.1675 -19.3475 77.1475 -19.6875 79.1875 C-20.3475 79.1875 -21.0075 79.1875 -21.6875 79.1875 C-22.0175 81.4975 -22.3475 83.8075 -22.6875 86.1875 C-23.3475 86.1875 -24.0075 86.1875 -24.6875 86.1875 C-24.64625 87.425 -24.605 88.6625 -24.5625 89.9375 C-24.55091709 93.20387962 -24.8306298 95.4021947 -26.6875 98.1875 C-25.2025 97.6925 -25.2025 97.6925 -23.6875 97.1875 C-21.67874558 97.46321139 -19.67571313 97.78985737 -17.6875 98.1875 C-17.3575 97.5275 -17.0275 96.8675 -16.6875 96.1875 C-16.6875 96.8475 -16.6875 97.5075 -16.6875 98.1875 C-12.96135847 97.06895414 -12.96135847 97.06895414 -10.6875 94.1875 C-10.0275 93.8575 -9.3675 93.5275 -8.6875 93.1875 C-5.52746837 90.84004793 -2.85692908 88.31048032 -0.1875 85.4375 C2.92278709 82.24554235 2.92278709 82.24554235 6.25 81.75 C6.930625 81.894375 7.61125 82.03875 8.3125 82.1875 C8.7156543 81.29756348 8.7156543 81.29756348 9.12695312 80.38964844 C10.31540732 78.18209967 11.51992389 76.72207118 13.28125 74.953125 C13.85230469 74.37949219 14.42335938 73.80585938 15.01171875 73.21484375 C15.60597656 72.62832031 16.20023437 72.04179687 16.8125 71.4375 C17.40675781 70.83550781 18.00101562 70.23351562 18.61328125 69.61328125 C19.18433594 69.04480469 19.75539063 68.47632813 20.34375 67.890625 C20.86517578 67.37145508 21.38660156 66.85228516 21.92382812 66.31738281 C23.3125 65.1875 23.3125 65.1875 25.3125 65.1875 C25.3125 64.1975 25.3125 63.2075 25.3125 62.1875 C25.6425 61.8575 25.9725 61.5275 26.3125 61.1875 C25.6525 60.8575 24.9925 60.5275 24.3125 60.1875 C24.79460937 59.88457031 25.27671875 59.58164063 25.7734375 59.26953125 C29.74214409 56.63722586 31.97403987 54.93294957 33.3125 50.1875 C35.02678571 46.33035714 35.02678571 46.33035714 37.3125 45.1875 C38.03943904 43.20861039 38.71066251 41.20795442 39.3125 39.1875 C39.9725 39.1875 40.6325 39.1875 41.3125 39.1875 C41.3125 37.5375 41.3125 35.8875 41.3125 34.1875 C41.9725 33.8575 42.6325 33.5275 43.3125 33.1875 C43.6425 32.0325 43.9725 30.8775 44.3125 29.6875 C44.6425 28.5325 44.9725 27.3775 45.3125 26.1875 C46.3025 25.6925 46.3025 25.6925 47.3125 25.1875 C47.65403937 23.52249557 47.98699498 21.85571323 48.3125 20.1875 C48.9725 19.5275 49.6325 18.8675 50.3125 18.1875 C49.8175 17.1975 49.8175 17.1975 49.3125 16.1875 C49.9725 16.1875 50.6325 16.1875 51.3125 16.1875 C51.3125 13.8775 51.3125 11.5675 51.3125 9.1875 C51.9725 9.1875 52.6325 9.1875 53.3125 9.1875 C53.3125 8.1975 53.3125 7.2075 53.3125 6.1875 C57.24138829 6.45537875 58.86126221 6.71187097 61.625 9.625 C63.79171574 12.91519797 64.43959896 14.55124081 64.4453125 18.43359375 C64.44660156 19.27083984 64.44789063 20.10808594 64.44921875 20.97070312 C64.44535156 21.84662109 64.44148438 22.72253906 64.4375 23.625 C64.44136719 24.49705078 64.44523437 25.36910156 64.44921875 26.26757812 C64.44792969 27.10611328 64.44664062 27.94464844 64.4453125 28.80859375 C64.44418457 29.5761499 64.44305664 30.34370605 64.44189453 31.13452148 C64.3125 33.1875 64.3125 33.1875 63.3125 36.1875 C62.6525 36.1875 61.9925 36.1875 61.3125 36.1875 C60.9825 38.4975 60.6525 40.8075 60.3125 43.1875 C59.6525 43.1875 58.9925 43.1875 58.3125 43.1875 C58.3125 44.8375 58.3125 46.4875 58.3125 48.1875 C56.3325 49.1775 56.3325 49.1775 54.3125 50.1875 C54.8075 52.1675 54.8075 52.1675 55.3125 54.1875 C53.3325 55.1775 53.3325 55.1775 51.3125 56.1875 C51.415625 56.8475 51.51875 57.5075 51.625 58.1875 C51.07945204 63.42476041 47.91179056 67.63524739 44.1875 71.25 C42.05401625 73.21917 42.05401625 73.21917 40.875 76.625 C39.18784566 80.4717119 37.40480138 82.39688656 34.3125 85.1875 C33.590625 85.950625 32.86875 86.71375 32.125 87.5 C30.3125 89.1875 30.3125 89.1875 28.3125 89.1875 C28.3125 89.88875 28.3125 90.59 28.3125 91.3125 C26.96703407 95.18071453 24.78861566 96.2989813 21.49609375 98.58203125 C19.34846046 100.16106038 17.58990602 101.82665153 15.75 103.75 C9.03928607 110.65898502 1.64543778 114.72219568 -7.6875 117.1875 C-8.6775 117.5175 -9.6675 117.8475 -10.6875 118.1875 C-18.10489692 118.85781291 -24.61698389 118.85511066 -30.6875 114.1875 C-39.1227161 106.35851093 -43.1099864 97.12831194 -43.9375 85.75 C-43.46067219 78.95520377 -41.9213965 72.60995242 -39.6875 66.1875 C-39.34584099 64.77281817 -39.01289331 63.35601146 -38.6875 61.9375 C-37.6875 58.1875 -37.6875 58.1875 -35.6875 56.1875 C-35.28702556 53.86474823 -34.9477896 51.53010643 -34.6875 49.1875 C-33.6975 49.1875 -32.7075 49.1875 -31.6875 49.1875 C-31.39875 48.218125 -31.11 47.24875 -30.8125 46.25 C-29.6875 43.1875 -29.6875 43.1875 -27.6875 42.1875 C-27.02977572 39.15815509 -27.02977572 39.15815509 -26.6875 36.1875 C-26.0275 36.1875 -25.3675 36.1875 -24.6875 36.1875 C-24.56375 35.61 -24.44 35.0325 -24.3125 34.4375 C-23.2577121 30.64026358 -21.63642079 28.06973988 -19.0625 25.125 C-16.37313893 22.42826887 -16.37313893 22.42826887 -16.6875 19.1875 C-16.0275 19.1875 -15.3675 19.1875 -14.6875 19.1875 C-14.1340236 17.11196352 -13.6875 15.34384036 -13.6875 13.1875 C-12.3125 11.5625 -12.3125 11.5625 -10.6875 10.1875 C-10.0275 10.1875 -9.3675 10.1875 -8.6875 10.1875 C-8.9040625 9.59582031 -9.120625 9.00414063 -9.34375 8.39453125 C-9.6875 6.1875 -9.6875 6.1875 -8.71875 4.44921875 C-5.69997971 1.34573807 -4.4881167 0.22820932 0 0 Z M-2.6875 39.1875 C-1.6875 42.1875 -1.6875 42.1875 -1.6875 42.1875 Z M-33.6875 50.1875 C-32.6875 52.1875 -32.6875 52.1875 -32.6875 52.1875 Z M37.3125 75.1875 C38.3125 78.1875 38.3125 78.1875 38.3125 78.1875 Z M3.3125 83.1875 C3.3125 83.8475 3.3125 84.5075 3.3125 85.1875 C3.9725 85.1875 4.6325 85.1875 5.3125 85.1875 C5.3125 84.5275 5.3125 83.8675 5.3125 83.1875 C4.6525 83.1875 3.9925 83.1875 3.3125 83.1875 Z M6.3125 105.1875 C5.9825 106.1775 5.6525 107.1675 5.3125 108.1875 C6.3025 108.1875 7.2925 108.1875 8.3125 108.1875 C7.9825 107.1975 7.6525 106.2075 7.3125 105.1875 C6.9825 105.1875 6.6525 105.1875 6.3125 105.1875 Z " fill="#F4F6F6" transform="translate(331.6875,65.8125)"/>
<path d="M0 0 C5.91328516 0.23189354 8.88124019 1.78763201 13 6 C17.23224453 11.6429927 16.26943448 18.27411704 16 25 C19.00939663 23.59318265 19.00939663 23.59318265 21.4375 21.375 C23 20 23 20 25.6875 19.8125 C26.8321875 19.9053125 26.8321875 19.9053125 28 20 C28.66 18.68 29.32 17.36 30 16 C30.66 16 31.32 16 32 16 C32.33 15.01 32.66 14.02 33 13 C34.2065625 12.814375 34.2065625 12.814375 35.4375 12.625 C36.283125 12.41875 37.12875 12.2125 38 12 C38.33 11.34 38.66 10.68 39 10 C44.6632123 8.84424239 51.06782244 7.85573559 56.5625 10 C61.40417295 13.97265472 66.49403448 19.20495474 69 25 C68.6875 27.8125 68.6875 27.8125 68 30 C68.66 30 69.32 30 70 30 C70 33.3 70 36.6 70 40 C69.34 40 68.68 40 68 40 C68 41.175625 68 42.35125 68 43.5625 C67.02776788 52.31258909 61.67356697 62.21729974 55 67.9375 C54.01 68.618125 53.02 69.29875 52 70 C51.36384766 69.29810547 51.36384766 69.29810547 50.71484375 68.58203125 C48.91253405 66.72287282 48.91253405 66.72287282 45.5625 65.6875 C41.2884476 63.66294886 39.97941675 62.27554018 38 58 C37.69757127 54.96579705 37.75708626 52.03642178 38 49 C38.66 48.67 39.32 48.34 40 48 C40.75243555 46.07361988 40.75243555 46.07361988 41 44 C40.67 43.34 40.34 42.68 40 42 C40.66 42 41.32 42 42 42 C42.185625 40.88625 42.185625 40.88625 42.375 39.75 C42.95486701 37.19858515 43.73708739 35.2732427 45 33 C44.01 33 43.02 33 42 33 C41.62875 33.9590625 41.62875 33.9590625 41.25 34.9375 C40 37 40 37 37.9375 37.625 C37.298125 37.74875 36.65875 37.8725 36 38 C35.505 38.99 35.505 38.99 35 40 C34.34 40 33.68 40 33 40 C31.78216651 41.28676746 30.6229378 42.62963523 29.5 44 C28.3770622 45.37036477 27.21783349 46.71323254 26 48 C25.34 48 24.68 48 24 48 C24 48.66 24 49.32 24 50 C22.58050515 51.18291237 21.15677733 52.36115607 19.7109375 53.51171875 C17.35988034 55.55681642 15.48810358 57.90528432 13.515625 60.30859375 C12.03256714 61.96365574 10.51956282 63.22673777 8.75 64.5625 C5.70242221 67.26376214 4.90999126 69.08703759 4 73 C3.34 73 2.68 73 2 73 C1.9175 73.66 1.835 74.32 1.75 75 C0.75240209 78.99039163 -1.07166683 82.38549643 -3 86 C-3.66 86 -4.32 86 -5 86 C-5.33 88.31 -5.66 90.62 -6 93 C-6.66 93 -7.32 93 -8 93 C-8.03738281 93.556875 -8.07476562 94.11375 -8.11328125 94.6875 C-8.59700369 100.30247416 -9.84648832 104.7956801 -12 110 C-12.33 110.99 -12.66 111.98 -13 113 C-16.0625 114.1875 -16.0625 114.1875 -19 115 C-19.33 114.01 -19.66 113.02 -20 112 C-21.12341797 112.11214844 -21.12341797 112.11214844 -22.26953125 112.2265625 C-25 112 -25 112 -26.94921875 110.4609375 C-32.88814607 103.33422471 -34.39660075 98.1470002 -34.26953125 88.859375 C-33.9238767 85.19243107 -33.02484779 83.03727168 -31 80 C-31.66 79.67 -32.32 79.34 -33 79 C-32.34 79 -31.68 79 -31 79 C-31 76.69 -31 74.38 -31 72 C-30.34 72 -29.68 72 -29 72 C-28.67 70.35 -28.34 68.7 -28 67 C-28.66 66.67 -29.32 66.34 -30 66 C-29.360625 65.443125 -28.72125 64.88625 -28.0625 64.3125 C-25.71795701 61.68376998 -25.56657165 60.39942991 -25 57 C-24.46375 55.948125 -23.9275 54.89625 -23.375 53.8125 C-22.92125 52.884375 -22.4675 51.95625 -22 51 C-22.33 50.34 -22.66 49.68 -23 49 C-22.34 49 -21.68 49 -21 49 C-21 47.02 -21 45.04 -21 43 C-20.01 43 -19.02 43 -18 43 C-17.690625 42.38125 -17.38125 41.7625 -17.0625 41.125 C-16.375 39.75 -15.6875 38.375 -15 37 C-15.66 36.67 -16.32 36.34 -17 36 C-16.01 36 -15.02 36 -14 36 C-14 35.01 -14 34.02 -14 33 C-13.34 33 -12.68 33 -12 33 C-11.67 30.69 -11.34 28.38 -11 26 C-10.34 26 -9.68 26 -9 26 C-8.67 25.34 -8.34 24.68 -8 24 C-8.66 23.67 -9.32 23.34 -10 23 C-9.34 22.5875 -8.68 22.175 -8 21.75 C-7.34 21.1725 -6.68 20.595 -6 20 C-6 18.68 -6 17.36 -6 16 C-5.34 16 -4.68 16 -4 16 C-4 14.02 -4 12.04 -4 10 C-3.34 10 -2.68 10 -2 10 C-1.90912109 9.04287109 -1.90912109 9.04287109 -1.81640625 8.06640625 C-1.73261719 7.24011719 -1.64882812 6.41382812 -1.5625 5.5625 C-1.48128906 4.73878906 -1.40007812 3.91507812 -1.31640625 3.06640625 C-1 1 -1 1 0 0 Z M16 27 C16 27.66 16 28.32 16 29 C16.99 28.67 17.98 28.34 19 28 C18.01 27.67 17.02 27.34 16 27 Z M37 33 C37 33.66 37 34.32 37 35 C36.01 35.495 36.01 35.495 35 36 C35.99 36 36.98 36 38 36 C37.67 35.01 37.34 34.02 37 33 Z M-20 44 C-19.67 44.66 -19.34 45.32 -19 46 C-18.67 45.34 -18.34 44.68 -18 44 C-18.66 44 -19.32 44 -20 44 Z M57 59 C57 59.66 57 60.32 57 61 C56.01 61.495 56.01 61.495 55 62 C55.99 62 56.98 62 58 62 C57.67 61.01 57.34 60.02 57 59 Z M-16 109 C-15 111 -15 111 -15 111 Z " fill="#F6F8F8" transform="translate(209,69)"/>
<path d="M0 0 C5.75 -0.125 5.75 -0.125 8 1 C8 1.66 8 2.32 8 3 C8.99 3 9.98 3 11 3 C12.75 5.3125 12.75 5.3125 14 8 C13.67 8.99 13.34 9.98 13 11 C13.66 11 14.32 11 15 11 C15.08113594 14.56998125 14.86043218 17.55827129 14 21 C14.04125 21.99 14.0825 22.98 14.125 24 C13.9768095 27.55657206 13.10755937 28.24396082 11 31 C10.51552361 32.93790557 10.03452542 34.87720067 9.60546875 36.828125 C8.58463437 40.48995671 6.7907353 43.65729412 5 47 C4.34 47 3.68 47 3 47 C2.67 49.31 2.34 51.62 2 54 C1.34 54 0.68 54 0 54 C-0.33 55.98 -0.66 57.96 -1 60 C-1.66 60 -2.32 60 -3 60 C-3.144375 60.78375 -3.28875 61.5675 -3.4375 62.375 C-4 65 -4 65 -5 67 C-5.66 67 -6.32 67 -7 67 C-6.67 68.65 -6.34 70.3 -6 72 C-7.485 72.495 -7.485 72.495 -9 73 C-8.9071875 74.60875 -8.9071875 74.60875 -8.8125 76.25 C-9 80 -9 80 -10.48632812 81.88623047 C-12.4245596 84.59287693 -12.38214515 86.26630506 -12.40625 89.5703125 C-12.42816406 90.63121094 -12.45007812 91.69210938 -12.47265625 92.78515625 C-12.49094937 95.01953073 -12.5091781 97.25390573 -12.52734375 99.48828125 C-12.54925781 100.54660156 -12.57117187 101.60492188 -12.59375 102.6953125 C-12.60083984 103.66484863 -12.60792969 104.63438477 -12.61523438 105.63330078 C-12.74220703 106.41431152 -12.86917969 107.19532227 -13 108 C-16 110 -16 110 -17.94140625 109.828125 C-21.96702065 108.20871275 -24.86531118 104.92237922 -28 102 C-29.3921875 100.7625 -29.3921875 100.7625 -30.8125 99.5 C-37.09239774 92.32297402 -36.34280381 85.15413149 -36 76 C-35.34 76 -34.68 76 -34 76 C-33.67 74.35 -33.34 72.7 -33 71 C-33.66 70.67 -34.32 70.34 -35 70 C-34.34 70 -33.68 70 -33 70 C-33 68.68 -33 67.36 -33 66 C-32.01 66 -31.02 66 -30 66 C-30.33 65.01 -30.66 64.02 -31 63 C-30.1875 59.875 -30.1875 59.875 -29 57 C-28.01 56.505 -28.01 56.505 -27 56 C-26.34227572 52.97065509 -26.34227572 52.97065509 -26 50 C-25.01 50 -24.02 50 -23 50 C-23 48.35 -23 46.7 -23 45 C-22.01 44.505 -22.01 44.505 -21 44 C-20.62690101 42.34178227 -20.29299023 40.67422986 -20 39 C-19 38 -18 37 -17 36 C-16.28591666 34.01643517 -15.61382258 32.01684563 -15 30 C-14.34 30 -13.68 30 -13 30 C-12.87625 29.4225 -12.7525 28.845 -12.625 28.25 C-11.99356636 25.97683888 -11.05142447 24.10284895 -10 22 C-10 21.34 -10 20.68 -10 20 C-9.01 20 -8.02 20 -7 20 C-7 19.34 -7 18.68 -7 18 C-7.66 17.67 -8.32 17.34 -9 17 C-8.34 16.67 -7.68 16.34 -7 16 C-6.835 15.175 -6.67 14.35 -6.5 13.5 C-6.335 12.675 -6.17 11.85 -6 11 C-5.34 10.67 -4.68 10.34 -4 10 C-3.53476937 8.10466658 -3.53476937 8.10466658 -3.375 5.9375 C-3.189375 3.9884375 -3.189375 3.9884375 -3 2 C-2.01 2 -1.02 2 0 2 C0 1.34 0 0.68 0 0 Z M-4 56 C-3 59 -3 59 -3 59 Z " fill="#F4F6F6" transform="translate(1041,75)"/>
<path d="M0 0 C0 0.66 0 1.32 0 2 C0.556875 2.061875 1.11375 2.12375 1.6875 2.1875 C5.14332894 3.40171017 6.70229092 5.16076864 9 8 C9.45249081 10.90546731 9.61667785 13.12548201 9.5 16 C9.50386719 17.04800781 9.50386719 17.04800781 9.5078125 18.1171875 C9.42302865 22.61073157 8.54892729 25.34169503 6 29 C5.35232207 31.57061311 5.35232207 31.57061311 5 34 C4.67 34.99 4.34 35.98 4 37 C3.34 37 2.68 37 2 37 C2 38.65 2 40.3 2 42 C0.68 42.66 -0.64 43.32 -2 44 C-1.773125 44.598125 -1.54625 45.19625 -1.3125 45.8125 C-1.1578125 46.8953125 -1.1578125 46.8953125 -1 48 C-1.97850195 49.02104551 -2.97980427 50.0206121 -4 51 C-4 52.32 -4 53.64 -4 55 C-4.66 55 -5.32 55 -6 55 C-6 55.66 -6 56.32 -6 57 C-6.66 57 -7.32 57 -8 57 C-7.95875 57.78375 -7.9175 58.5675 -7.875 59.375 C-8 62 -8 62 -10 64 C-10.7166207 66.31847874 -11.38242027 68.65319703 -12 71 C-12.33 71.99 -12.66 72.98 -13 74 C-13.66 74 -14.32 74 -15 74 C-15.33 75.98 -15.66 77.96 -16 80 C-16.66 80 -17.32 80 -18 80 C-17.98839844 80.77601563 -17.97679687 81.55203125 -17.96484375 82.3515625 C-17.77934272 104.55868545 -17.77934272 104.55868545 -20 109 C-21.7578125 109.87890625 -21.7578125 109.87890625 -24 110 C-26.3671875 108.33984375 -26.3671875 108.33984375 -28.875 105.9375 C-29.74769531 105.10734375 -30.62039063 104.2771875 -31.51953125 103.421875 C-32.33808594 102.62265625 -33.15664063 101.8234375 -34 101 C-34.64324219 100.40703125 -35.28648437 99.8140625 -35.94921875 99.203125 C-39.55451487 95.81606714 -40.83866947 93.70122104 -41.12939453 88.83349609 C-41.13108643 87.69001709 -41.13108643 87.69001709 -41.1328125 86.5234375 C-41.13410156 85.688125 -41.13539063 84.8528125 -41.13671875 83.9921875 C-41.13285156 83.12851563 -41.12898438 82.26484375 -41.125 81.375 C-41.12886719 80.50359375 -41.13273437 79.6321875 -41.13671875 78.734375 C-41.13542969 77.90164062 -41.13414062 77.06890625 -41.1328125 76.2109375 C-41.13168457 75.45087402 -41.13055664 74.69081055 -41.12939453 73.90771484 C-41 72 -41 72 -40 70 C-39.34 70 -38.68 70 -38 70 C-38.061875 69.071875 -38.12375 68.14375 -38.1875 67.1875 C-38 64 -38 64 -36.5 62.125 C-36.005 61.75375 -35.51 61.3825 -35 61 C-35.66 60.67 -36.32 60.34 -37 60 C-36.34 59.401875 -35.68 58.80375 -35 58.1875 C-32.6626154 56.12498166 -32.6626154 56.12498166 -33 53 C-32.34 53 -31.68 53 -31 53 C-30.4465236 50.92446352 -30 49.15634036 -30 47 C-29.34 47 -28.68 47 -28 47 C-27.690625 46.38125 -27.38125 45.7625 -27.0625 45.125 C-26.375 43.75 -25.6875 42.375 -25 41 C-25.66 40.67 -26.32 40.34 -27 40 C-26.01 40 -25.02 40 -24 40 C-24 39.01 -24 38.02 -24 37 C-23.34 37 -22.68 37 -22 37 C-21.67 34.69 -21.34 32.38 -21 30 C-20.34 30 -19.68 30 -19 30 C-18.67 29.34 -18.34 28.68 -18 28 C-18.66 27.67 -19.32 27.34 -20 27 C-19.34 26.5875 -18.68 26.175 -18 25.75 C-17.34 25.1725 -16.68 24.595 -16 24 C-16 22.68 -16 21.36 -16 20 C-15.34 20 -14.68 20 -14 20 C-13.08592978 17.25778934 -12.48923795 14.64475482 -11.9375 11.8125 C-11.76089844 10.91144531 -11.58429688 10.01039062 -11.40234375 9.08203125 C-11.26957031 8.39496094 -11.13679688 7.70789063 -11 7 C-10.01 7 -9.02 7 -8 7 C-8.061875 6.21625 -8.12375 5.4325 -8.1875 4.625 C-8.0946875 3.325625 -8.0946875 3.325625 -8 2 C-4.77208445 -0.1519437 -3.71599191 -0.20086443 0 0 Z M-10 8 C-9 10 -9 10 -9 10 Z M-12 60 C-11 62 -11 62 -11 62 Z " fill="#F5F7F7" transform="translate(434,75)"/>
<path d="M0 0 C5.18001197 2.09018027 8.65946635 5.53446635 12.5625 9.4375 C13.07861006 15.52759877 12.60873402 18.5582178 8.5625 23.4375 C7.9025 23.7675 7.2425 24.0975 6.5625 24.4375 C6.3975 25.0975 6.2325 25.7575 6.0625 26.4375 C5.8975 27.0975 5.7325 27.7575 5.5625 28.4375 C3.06874665 29.68437668 0.9606939 29.83875881 -1.8125 30.125 C-2.76898437 30.23199219 -3.72546875 30.33898437 -4.7109375 30.44921875 C-7.62939823 30.43667522 -9.01297072 30.00726175 -11.4375 28.4375 C-13.82348341 25.88696601 -14.44755887 24.15168003 -14.3984375 20.6640625 C-14.15035284 17.90677871 -13.83568905 15.17684875 -13.4375 12.4375 C-12.7775 12.4375 -12.1175 12.4375 -11.4375 12.4375 C-11.33695313 11.86644531 -11.23640625 11.29539062 -11.1328125 10.70703125 C-9.49071191 5.34714114 -5.6021284 0.71299816 0 0 Z " fill="#F1F2F2" transform="translate(1058.4375,35.5625)"/>
<path d="M0 0 C5.89852104 0.20696565 9.26091521 1.1481845 13.5859375 5.24609375 C15.78775595 7.97707851 16.48281444 10.5736457 17 14 C16.67 14.99 16.34 15.98 16 17 C15.34 17 14.68 17 14 17 C13.89816406 17.73605469 13.79632813 18.47210938 13.69140625 19.23046875 C12.53031527 23.8813925 9.71881597 27.05207103 6 30 C2.16975698 31.07883972 -1.14258258 30.23715801 -4.9375 29.1875 C-7 28 -7 28 -8 25 C-8.66 24.67 -9.32 24.34 -10 24 C-11.51478702 18.17389609 -10.62779243 15.15047317 -8 10 C-7.34 10 -6.68 10 -6 10 C-5.87625 9.4225 -5.7525 8.845 -5.625 8.25 C-4.97946097 5.92605949 -4.27275111 4.05054346 -3 2 C-2.01 1.67 -1.02 1.34 0 1 C0 0.67 0 0.34 0 0 Z M13 8 C14 11 14 11 14 11 Z M6 24 C5.67 24.66 5.34 25.32 5 26 C5.66 26 6.32 26 7 26 C6.67 25.34 6.34 24.68 6 24 Z " fill="#F3F5F5" transform="translate(442,36)"/>
<path d="M0 0 C0.99 0.33 1.98 0.66 3 1 C2.56131592 1.42821045 2.12263184 1.8564209 1.6706543 2.29760742 C-0.32906009 4.25554541 -2.32080319 6.22140811 -4.3125 8.1875 C-5.00279297 8.86103516 -5.69308594 9.53457031 -6.40429688 10.22851562 C-11.35454627 15.11264544 -11.35454627 15.11264544 -15 21 C-15 21.66 -15 22.32 -15 23 C-21.625 25.875 -21.625 25.875 -25 27 C-25 26.34 -25 25.68 -25 25 C-24.38125 24.938125 -23.7625 24.87625 -23.125 24.8125 C-22.42375 24.544375 -21.7225 24.27625 -21 24 C-20.70544922 23.24501221 -20.41089844 22.49002441 -20.10742188 21.7121582 C-18.87002855 18.68169029 -17.46577153 17.0924982 -15.15625 14.79296875 C-14.40472656 14.04208984 -13.65320312 13.29121094 -12.87890625 12.51757812 C-11.70134766 11.36418945 -11.70134766 11.36418945 -10.5 10.1875 C-9.71496094 9.39923828 -8.92992187 8.61097656 -8.12109375 7.79882812 C-2.26703869 2 -2.26703869 2 0 2 C0 1.34 0 0.68 0 0 Z " fill="#9B9997" transform="translate(1239,103)"/>
<path d="M0 0 C0.99 0 1.98 0 3 0 C4.30459914 2.60919828 4.1326594 4.58942615 4.125 7.5 C4.12757813 8.4796875 4.13015625 9.459375 4.1328125 10.46875 C4 13 4 13 3 15 C-1.875 13.125 -1.875 13.125 -3 12 C-2.94921875 10.0390625 -2.94921875 10.0390625 -2.6875 7.625 C-2.60886719 6.83351563 -2.53023437 6.04203125 -2.44921875 5.2265625 C-2 3 -2 3 0 0 Z " fill="#F1F1F1" transform="translate(835,57)"/>
<path d="M0 0 C0.66 0.33 1.32 0.66 2 1 C3.28317892 4.84953676 3.06643637 7.94738135 3 12 C1.68 12 0.36 12 -1 12 C-1.66 13.32 -2.32 14.64 -3 16 C-4 15 -4 15 -4.09765625 11.83984375 C-4.08025391 9.90818359 -4.08025391 9.90818359 -4.0625 7.9375 C-4.05347656 6.64714844 -4.04445313 5.35679687 -4.03515625 4.02734375 C-4.02355469 3.02832031 -4.01195312 2.02929688 -4 1 C-2.68 1.33 -1.36 1.66 0 2 C0 1.34 0 0.68 0 0 Z " fill="#F0F0F0" transform="translate(1057,221)"/>
<path d="M0 0 C-0.58325488 3.80421465 -2.28269104 5.84791852 -4.8125 8.6875 C-5.49957031 9.47511719 -6.18664062 10.26273438 -6.89453125 11.07421875 C-9.07100486 13.06494508 -10.19186076 13.4444768 -13 14 C-13.309375 14.66 -13.61875 15.32 -13.9375 16 C-14.288125 16.66 -14.63875 17.32 -15 18 C-17.625 18.75 -17.625 18.75 -20 19 C-19.67 18.34 -19.34 17.68 -19 17 C-18.01 17 -17.02 17 -16 17 C-15.896875 16.38125 -15.79375 15.7625 -15.6875 15.125 C-15 13 -15 13 -12 11 C-9.93549389 9.01338806 -9.93549389 9.01338806 -8.125 6.625 C-2.76190476 0 -2.76190476 0 0 0 Z " fill="#A9A8A6" transform="translate(934,145)"/>
<path d="M0 0 C0.66 0.66 1.32 1.32 2 2 C-1.09602087 5.15394039 -4.20314207 8.29671173 -7.3125 11.4375 C-8.19357422 12.33533203 -9.07464844 13.23316406 -9.98242188 14.15820312 C-10.82998047 15.01220703 -11.67753906 15.86621094 -12.55078125 16.74609375 C-13.33106689 17.53685303 -14.11135254 18.3276123 -14.9152832 19.14233398 C-17 21 -17 21 -20 22 C-18.77961658 18.33884974 -16.71377342 16.59330217 -14 14 C-12.41226772 12.44197019 -10.82922532 10.87915187 -9.25 9.3125 C-8.08210937 8.16201172 -8.08210937 8.16201172 -6.890625 6.98828125 C-4.94769385 5.1389301 -4.94769385 5.1389301 -4 3 C-3.01 3 -2.02 3 -1 3 C-0.67 2.01 -0.34 1.02 0 0 Z " fill="#B9B8B6" transform="translate(235,109)"/>
<path d="M0 0 C0.33 0 0.66 0 1 0 C2.25406138 5.78645644 2.11186913 11.48868116 2.0625 17.375 C2.05798828 18.39722656 2.05347656 19.41945313 2.04882812 20.47265625 C2.037103 22.98183194 2.02069176 25.4908849 2 28 C1.34 28 0.68 28 0 28 C0.33 23.71 0.66 19.42 1 15 C0.34 15 -0.32 15 -1 15 C-1.02693575 12.87506859 -1.04636628 10.75004088 -1.0625 8.625 C-1.07410156 7.44164063 -1.08570313 6.25828125 -1.09765625 5.0390625 C-1 2 -1 2 0 0 Z " fill="#CBCAC8" transform="translate(660,79)"/>
<path d="M0 0 C0.66 0.66 1.32 1.32 2 2 C-1.60575001 6.58913637 -5.47384007 10.32167983 -10 14 C-10.66 13.34 -11.32 12.68 -12 12 C-8.04 8.04 -4.08 4.08 0 0 Z " fill="#9E9D9A" transform="translate(913,118)"/>
<path d="M0 0 C0.99 0.33 1.98 0.66 3 1 C2.67 1.61875 2.34 2.2375 2 2.875 C0.85806765 4.91018344 0.85806765 4.91018344 1 7 C-5.625 9.875 -5.625 9.875 -9 11 C-9 10.34 -9 9.68 -9 9 C-8.38125 8.938125 -7.7625 8.87625 -7.125 8.8125 C-4.7498001 8.19124685 -4.7498001 8.19124685 -3.9375 5.625 C-3.628125 4.75875 -3.31875 3.8925 -3 3 C-1.375 1.1875 -1.375 1.1875 0 0 Z " fill="#BDBCBA" transform="translate(1223,119)"/>
<path d="M0 0 C1.60332791 -0.08121924 3.20784026 -0.13929134 4.8125 -0.1875 C6.15248047 -0.23970703 6.15248047 -0.23970703 7.51953125 -0.29296875 C10 0 10 0 13 3 C8.38 3 3.76 3 -1 3 C-0.67 2.01 -0.34 1.02 0 0 Z " fill="#ADACAA" transform="translate(154,107)"/>
<path d="M0 0 C2.97 0 5.94 0 9 0 C9 0.66 9 1.32 9 2 C12.96 2 16.92 2 21 2 C21 2.33 21 2.66 21 3 C18.45826023 3.02716824 15.91681585 3.04691969 13.375 3.0625 C12.30572266 3.07506836 12.30572266 3.07506836 11.21484375 3.08789062 C7.02655562 3.10710296 3.1271538 2.8267327 -1 2 C-0.67 1.34 -0.34 0.68 0 0 Z " fill="#CECDCB" transform="translate(963,83)"/>
<path d="M0 0 C9.57 0 19.14 0 29 0 C24.65285533 3.2603585 24.0209404 3.34916836 18.921875 3.07421875 C17.76171875 3.01943359 16.6015625 2.96464844 15.40625 2.90820312 C14.1996875 2.83537109 12.993125 2.76253906 11.75 2.6875 C10.52796875 2.62626953 9.3059375 2.56503906 8.046875 2.50195312 C5.03021642 2.34876343 2.01510186 2.18091879 -1 2 C-0.67 1.34 -0.34 0.68 0 0 Z " fill="#B9B8B6" transform="translate(864,174)"/>
<path d="M0 0 C0.66 0 1.32 0 2 0 C1.52797514 4.24822374 -0.96655518 6.19989709 -4 9 C-4.99 8.67 -5.98 8.34 -7 8 C-6.02133662 6.85373678 -5.04205413 5.70800212 -4.0625 4.5625 C-3.51722656 3.92441406 -2.97195313 3.28632813 -2.41015625 2.62890625 C-1.63204305 1.73008851 -0.84063472 0.84063472 0 0 Z " fill="#9C9B98" transform="translate(932,145)"/>
<path d="M0 0 C0.33 0 0.66 0 1 0 C1 3.96 1 7.92 1 12 C0.67 12 0.34 12 0 12 C0 8.04 0 4.08 0 0 Z " fill="#000100" transform="translate(397,83)"/>
<path d="M0 0 C2.97 0 5.94 0 9 0 C9 0.33 9 0.66 9 1 C6.03 1 3.06 1 0 1 C0 0.67 0 0.34 0 0 Z " fill="#000100" transform="translate(116,116)"/>
<path d="M0 0 C0.66 0.33 1.32 0.66 2 1 C1.01 1.99 0.02 2.98 -1 4 C-1 1 -1 1 0 0 Z " fill="#FBFDFD" transform="translate(1233,113)"/>
<path d="M0 0 C0.33 0.66 0.66 1.32 1 2 C-0.98 2.99 -0.98 2.99 -3 4 C-2.67 3.01 -2.34 2.02 -2 1 C-1.34 0.67 -0.68 0.34 0 0 Z " fill="#FBFDFD" transform="translate(1230,117)"/>
<path d="M0 0 C2.31 0 4.62 0 7 0 C7 0.33 7 0.66 7 1 C4.69 1 2.38 1 0 1 C0 0.67 0 0.34 0 0 Z " fill="#000100" transform="translate(153,116)"/>
<path d="M0 0 C2.31 0 4.62 0 7 0 C7 0.33 7 0.66 7 1 C4.69 1 2.38 1 0 1 C0 0.67 0 0.34 0 0 Z " fill="#000100" transform="translate(1053,66)"/>
<path d="M0 0 C1.98 0 3.96 0 6 0 C6 0.33 6 0.66 6 1 C4.02 1 2.04 1 0 1 C0 0.67 0 0.34 0 0 Z " fill="#000100" transform="translate(929,248)"/>
<path d="M0 0 C0.33 0 0.66 0 1 0 C1 1.98 1 3.96 1 6 C0.67 6 0.34 6 0 6 C0 4.02 0 2.04 0 0 Z " fill="#000100" transform="translate(536,159)"/>
<path d="M0 0 C0.33 0 0.66 0 1 0 C1 1.65 1 3.3 1 5 C0.67 5 0.34 5 0 5 C0 3.35 0 1.7 0 0 Z " fill="#000100" transform="translate(341,81)"/>
<path d="M0 0 C1 4 1 4 1 4 Z " fill="#000100" transform="translate(536,153)"/>
<path d="M0 0 C4 1 4 1 4 1 Z " fill="#000100" transform="translate(749,30)"/>
<path d="M0 0 C3 1 3 1 3 1 Z " fill="#000100" transform="translate(739,185)"/>
<path d="" fill="#000100" transform="translate(0,0)"/>
<path d="" fill="#000100" transform="translate(0,0)"/>
<path d="" fill="#FBFDFD" transform="translate(0,0)"/>
<path d="" fill="#000100" transform="translate(0,0)"/>
<path d="" fill="#000100" transform="translate(0,0)"/>
<path d="" fill="#FBFDFD" transform="translate(0,0)"/>
<path d="" fill="#000100" transform="translate(0,0)"/>
<path d="M0 0 C0.33 0.66 0.66 1.32 1 2 C0.34 1.67 -0.32 1.34 -1 1 C-0.67 0.67 -0.34 0.34 0 0 Z " fill="#FBFDFD" transform="translate(1226,121)"/>
<path d="" fill="#000100" transform="translate(0,0)"/>
<path d="M0 0 C0.99 0.495 0.99 0.495 2 1 C1.01 1.495 1.01 1.495 0 2 C0 1.34 0 0.68 0 0 Z " fill="#CCCBC9" transform="translate(721,99)"/>
<path d="" fill="#000100" transform="translate(0,0)"/>
<path d="M0 0 C3 1 3 1 3 1 Z " fill="#000100" transform="translate(790,30)"/>
<path d="M0 0 C0.99 0.495 0.99 0.495 2 1 C1.01 1.495 1.01 1.495 0 2 C0 1.34 0 0.68 0 0 Z " fill="#E8E9E8" transform="translate(70,9)"/>
<path d="" fill="#000100" transform="translate(0,0)"/>
<path d="" fill="#FBFDFD" transform="translate(0,0)"/>
<path d="M0 0 C2 1 2 1 2 1 Z " fill="#000100" transform="translate(695,185)"/>
<path d="M0 0 C2 1 2 1 2 1 Z " fill="#000100" transform="translate(854,175)"/>
<path d="" fill="#000100" transform="translate(0,0)"/>
<path d="" fill="#000100" transform="translate(0,0)"/>
<path d="M0 0 C2 1 2 1 2 1 Z " fill="#FBFDFD" transform="translate(875,165)"/>
<path d="" fill="#000100" transform="translate(0,0)"/>
<path d="" fill="#FBFDFD" transform="translate(0,0)"/>
<path d="" fill="#000100" transform="translate(0,0)"/>
<path d="M0 0 C2 1 2 1 2 1 Z " fill="#FBFDFD" transform="translate(908,151)"/>
<path d="M0 0 C2 1 2 1 2 1 Z " fill="#E0E0DE" transform="translate(27,150)"/>
<path d="" fill="#1A1A19" transform="translate(0,0)"/>
<path d="" fill="#000100" transform="translate(0,0)"/>
<path d="" fill="#000100" transform="translate(0,0)"/>
<path d="" fill="#000100" transform="translate(0,0)"/>
<path d="" fill="#CFD0CF" transform="translate(0,0)"/>
<path d="" fill="#000100" transform="translate(0,0)"/>
<path d="" fill="#000100" transform="translate(0,0)"/>
<path d="" fill="#000100" transform="translate(0,0)"/>
<path d="" fill="#000100" transform="translate(0,0)"/>
<path d="" fill="#000100" transform="translate(0,0)"/>
<path d="" fill="#000100" transform="translate(0,0)"/>
<path d="" fill="#000100" transform="translate(0,0)"/>
<path d="" fill="#FBFDFD" transform="translate(0,0)"/>
<path d="M0 0 C2 1 2 1 2 1 Z " fill="#090A09" transform="translate(42,89)"/>
<path d="" fill="#000100" transform="translate(0,0)"/>
<path d="" fill="#000100" transform="translate(0,0)"/>
<path d="" fill="#000100" transform="translate(0,0)"/>
<path d="M0 0 C2 1 2 1 2 1 Z " fill="#000100" transform="translate(443,66)"/>
<path d="M0 0 C2 1 2 1 2 1 Z " fill="#000100" transform="translate(438,66)"/>
<path d="M0 0 C2 1 2 1 2 1 Z " fill="#FBFDFD" transform="translate(329,65)"/>
<path d="" fill="#000100" transform="translate(0,0)"/>
<path d="" fill="#FBFDFD" transform="translate(0,0)"/>
<path d="M0 0 C2 1 2 1 2 1 Z " fill="#000100" transform="translate(739,33)"/>
<path d="M0 0 C2 1 2 1 2 1 Z " fill="#DEDFDE" transform="translate(119,26)"/>
<path d="M0 0 C2 1 2 1 2 1 Z " fill="#000100" transform="translate(101,23)"/>
<path d="" fill="#FBFDFD" transform="translate(0,0)"/>
<path d="" fill="#000100" transform="translate(0,0)"/>
<path d="" fill="#D0CFCD" transform="translate(0,0)"/>
<path d="" fill="#000100" transform="translate(0,0)"/>
<path d="" fill="#E0E0DE" transform="translate(0,0)"/>
<path d="" fill="#000100" transform="translate(0,0)"/>
<path d="" fill="#F1F1F1" transform="translate(0,0)"/>
<path d="" fill="#000100" transform="translate(0,0)"/>
<path d="" fill="#F1F1F1" transform="translate(0,0)"/>
<path d="" fill="#131312" transform="translate(0,0)"/>
<path d="" fill="#C2C1BF" transform="translate(0,0)"/>
<path d="" fill="#E0E0DE" transform="translate(0,0)"/>
<path d="" fill="#000100" transform="translate(0,0)"/>
<path d="" fill="#000100" transform="translate(0,0)"/>
<path d="" fill="#000100" transform="translate(0,0)"/>
<path d="" fill="#000100" transform="translate(0,0)"/>
<path d="" fill="#302E2C" transform="translate(0,0)"/>
<path d="" fill="#000100" transform="translate(0,0)"/>
<path d="" fill="#000100" transform="translate(0,0)"/>
<path d="" fill="#A4A3A1" transform="translate(0,0)"/>
<path d="" fill="#FBFDFD" transform="translate(0,0)"/>
<path d="" fill="#FBFDFD" transform="translate(0,0)"/>
<path d="" fill="#FBFDFD" transform="translate(0,0)"/>
<path d="" fill="#000100" transform="translate(0,0)"/>
<path d="" fill="#000100" transform="translate(0,0)"/>
<path d="" fill="#FBFDFD" transform="translate(0,0)"/>
<path d="" fill="#FBFDFD" transform="translate(0,0)"/>
<path d="" fill="#FBFDFD" transform="translate(0,0)"/>
<path d="" fill="#FBFDFD" transform="translate(0,0)"/>
<path d="" fill="#131312" transform="translate(0,0)"/>
<path d="" fill="#000100" transform="translate(0,0)"/>
<path d="" fill="#000100" transform="translate(0,0)"/>
<path d="" fill="#000100" transform="translate(0,0)"/>
<path d="" fill="#D0CFCD" transform="translate(0,0)"/>
<path d="" fill="#E0E0DE" transform="translate(0,0)"/>
<path d="" fill="#FBFDFD" transform="translate(0,0)"/>
<path d="" fill="#FBFDFD" transform="translate(0,0)"/>
<path d="" fill="#000100" transform="translate(0,0)"/>
<path d="" fill="#000100" transform="translate(0,0)"/>
<path d="" fill="#000100" transform="translate(0,0)"/>
<path d="" fill="#000100" transform="translate(0,0)"/>
<path d="" fill="#000100" transform="translate(0,0)"/>
<path d="" fill="#E0E0DE" transform="translate(0,0)"/>
<path d="" fill="#000100" transform="translate(0,0)"/>
<path d="" fill="#131312" transform="translate(0,0)"/>
<path d="" fill="#FBFDFD" transform="translate(0,0)"/>
<path d="" fill="#FBFDFD" transform="translate(0,0)"/>
<path d="" fill="#000100" transform="translate(0,0)"/>
<path d="" fill="#FBFDFD" transform="translate(0,0)"/>
<path d="" fill="#000100" transform="translate(0,0)"/>
<path d="" fill="#000100" transform="translate(0,0)"/>
<path d="" fill="#FBFDFD" transform="translate(0,0)"/>
<path d="" fill="#000100" transform="translate(0,0)"/>
<path d="" fill="#FBFDFD" transform="translate(0,0)"/>
<path d="" fill="#D0CFCD" transform="translate(0,0)"/>
<path d="" fill="#000100" transform="translate(0,0)"/>
<path d="" fill="#000100" transform="translate(0,0)"/>
<path d="" fill="#FBFDFD" transform="translate(0,0)"/>
<path d="" fill="#000100" transform="translate(0,0)"/>
<path d="" fill="#C2C1BF" transform="translate(0,0)"/>
<path d="" fill="#82807D" transform="translate(0,0)"/>
<path d="" fill="#A4A3A1" transform="translate(0,0)"/>
<path d="" fill="#F1F1F1" transform="translate(0,0)"/>
<path d="" fill="#F1F1F1" transform="translate(0,0)"/>
<path d="" fill="#000100" transform="translate(0,0)"/>
<path d="" fill="#000100" transform="translate(0,0)"/>
<path d="" fill="#222120" transform="translate(0,0)"/>
<path d="" fill="#000100" transform="translate(0,0)"/>
<path d="" fill="#FBFDFD" transform="translate(0,0)"/>
<path d="" fill="#000100" transform="translate(0,0)"/>
<path d="" fill="#000100" transform="translate(0,0)"/>
<path d="" fill="#000100" transform="translate(0,0)"/>
<path d="" fill="#000100" transform="translate(0,0)"/>
<path d="" fill="#C2C1BF" transform="translate(0,0)"/>
<path d="" fill="#FBFDFD" transform="translate(0,0)"/>
<path d="" fill="#FBFDFD" transform="translate(0,0)"/>
<path d="" fill="#000100" transform="translate(0,0)"/>
<path d="" fill="#000100" transform="translate(0,0)"/>
<path d="" fill="#000100" transform="translate(0,0)"/>
<path d="" fill="#000100" transform="translate(0,0)"/>
<path d="" fill="#FBFDFD" transform="translate(0,0)"/>
<path d="" fill="#FBFDFD" transform="translate(0,0)"/>
<path d="" fill="#000100" transform="translate(0,0)"/>
<path d="" fill="#000100" transform="translate(0,0)"/>
<path d="" fill="#000100" transform="translate(0,0)"/>
<path d="" fill="#000100" transform="translate(0,0)"/>
<path d="" fill="#A4A3A1" transform="translate(0,0)"/>
<path d="" fill="#94928F" transform="translate(0,0)"/>
<path d="" fill="#FBFDFD" transform="translate(0,0)"/>
<path d="" fill="#D0CFCD" transform="translate(0,0)"/>
<path d="" fill="#C2C1BF" transform="translate(0,0)"/>
<path d="" fill="#222120" transform="translate(0,0)"/>
<path d="" fill="#000100" transform="translate(0,0)"/>
<path d="" fill="#000100" transform="translate(0,0)"/>
<path d="" fill="#FBFDFD" transform="translate(0,0)"/>
<path d="" fill="#302E2C" transform="translate(0,0)"/>
<path d="" fill="#FBFDFD" transform="translate(0,0)"/>
<path d="" fill="#F1F1F1" transform="translate(0,0)"/>
<path d="" fill="#FBFDFD" transform="translate(0,0)"/>
<path d="" fill="#FBFDFD" transform="translate(0,0)"/>
<path d="" fill="#302E2C" transform="translate(0,0)"/>
<path d="" fill="#FBFDFD" transform="translate(0,0)"/>
<path d="" fill="#000100" transform="translate(0,0)"/>
<path d="" fill="#C2C1BF" transform="translate(0,0)"/>
<path d="" fill="#000100" transform="translate(0,0)"/>
<path d="" fill="#000100" transform="translate(0,0)"/>
<path d="" fill="#FBFDFD" transform="translate(0,0)"/>
<path d="" fill="#FBFDFD" transform="translate(0,0)"/>
<path d="" fill="#E0E0DE" transform="translate(0,0)"/>
<path d="" fill="#F1F1F1" transform="translate(0,0)"/>
<path d="" fill="#222120" transform="translate(0,0)"/>
<path d="" fill="#FBFDFD" transform="translate(0,0)"/>
<path d="" fill="#000100" transform="translate(0,0)"/>
<path d="" fill="#FBFDFD" transform="translate(0,0)"/>
<path d="" fill="#000100" transform="translate(0,0)"/>
<path d="" fill="#B3B2B0" transform="translate(0,0)"/>
<path d="" fill="#FBFDFD" transform="translate(0,0)"/>
<path d="" fill="#D0CFCD" transform="translate(0,0)"/>
<path d="" fill="#000100" transform="translate(0,0)"/>
<path d="" fill="#C2C1BF" transform="translate(0,0)"/>
<path d="" fill="#000100" transform="translate(0,0)"/>
<path d="" fill="#000100" transform="translate(0,0)"/>
<path d="" fill="#FBFDFD" transform="translate(0,0)"/>
<path d="" fill="#FBFDFD" transform="translate(0,0)"/>
<path d="" fill="#FBFDFD" transform="translate(0,0)"/>
<path d="" fill="#302E2C" transform="translate(0,0)"/>
<path d="" fill="#D0CFCD" transform="translate(0,0)"/>
<path d="" fill="#94928F" transform="translate(0,0)"/>
<path d="" fill="#000100" transform="translate(0,0)"/>
<path d="" fill="#D0CFCD" transform="translate(0,0)"/>
<path d="" fill="#D0CFCD" transform="translate(0,0)"/>
<path d="" fill="#000100" transform="translate(0,0)"/>
<path d="" fill="#F1F1F1" transform="translate(0,0)"/>
<path d="" fill="#222120" transform="translate(0,0)"/>
<path d="" fill="#A4A3A1" transform="translate(0,0)"/>
<path d="" fill="#000100" transform="translate(0,0)"/>
<path d="" fill="#000100" transform="translate(0,0)"/>
<path d="" fill="#C2C1BF" transform="translate(0,0)"/>
<path d="" fill="#302E2C" transform="translate(0,0)"/>
<path d="" fill="#F1F1F1" transform="translate(0,0)"/>
<path d="" fill="#000100" transform="translate(0,0)"/>
<path d="" fill="#C2C1BF" transform="translate(0,0)"/>
<path d="" fill="#FBFDFD" transform="translate(0,0)"/>
</svg>
