<svg version="1.1" id="Layer_1" xmlns="http://www.w3.org/2000/svg" xmlns:xlink="http://www.w3.org/1999/xlink" x="0px" y="0px"
	 width="100%" viewBox="0 0 500 500" enable-background="new 0 0 500 500" xml:space="preserve">
<path fill="#FFFFFF" opacity="1.000000" stroke="none" 
	d="
M290.000000,501.000000 
	C194.666687,501.000000 99.833351,500.976318 5.000188,501.095673 
	C1.576172,501.099976 0.903036,500.423828 0.905301,497.000000 
	C1.013778,333.000092 1.013756,169.000137 0.905337,5.000249 
	C0.903074,1.576955 1.575786,0.903021 4.999874,0.905286 
	C168.999756,1.013775 332.999725,1.013761 496.999634,0.905354 
	C500.422668,0.903091 501.096985,1.575424 501.094727,4.999754 
	C500.986206,168.999634 500.986237,332.999603 501.094604,496.999512 
	C501.096893,500.422272 500.425720,501.102966 497.000244,501.096527 
	C428.167023,500.967438 359.333466,501.000000 290.000000,501.000000 
z"/>
<path fill="#020202" opacity="1.000000" stroke="none" 
	d="
M336.000000,299.003845 
	C251.002945,299.003845 166.505814,298.963715 82.009048,299.117371 
	C77.586548,299.125397 76.617035,298.050446 76.649574,293.714935 
	C76.865936,264.884247 76.833031,236.050735 76.670929,207.219299 
	C76.650803,203.639908 77.653755,202.915573 81.074417,202.918411 
	C194.237061,203.012375 307.399841,203.018158 420.562439,202.900604 
	C424.355743,202.896667 425.155426,203.858292 425.134369,207.535172 
	C424.968292,236.533203 424.958191,265.533173 425.143707,294.530975 
	C425.168060,298.343597 424.156738,299.116760 420.495728,299.095032 
	C392.497986,298.928864 364.498749,299.003845 336.000000,299.003845 
z"/>
<path fill="#FDFDFD" opacity="1.000000" stroke="none" 
	d="
M80.383553,206.094086 
	C193.129288,206.008041 305.409088,206.027588 417.688690,205.899780 
	C421.550537,205.895386 422.253265,206.954437 422.231659,210.570999 
	C422.070526,237.557175 422.053528,264.545380 422.246613,291.531158 
	C422.273987,295.359192 421.226929,296.088531 417.586365,296.085114 
	C306.472809,295.980927 195.359070,295.973785 84.245529,296.101440 
	C80.032532,296.106293 79.093803,295.011444 79.124863,290.901825 
	C79.326317,264.249390 79.214272,237.594681 79.263062,210.940826 
	C79.265953,209.358185 78.590660,207.605515 80.383553,206.094086 
z"/>
<path fill="#010101" opacity="1.000000" stroke="none" 
	d="
M249.636185,228.632355 
	C250.966599,243.316956 250.175186,257.730774 250.397537,272.607666 
	C247.777573,275.226501 244.657318,274.568420 241.729370,274.571259 
	C194.934402,274.616486 148.139374,274.591583 101.344398,274.630463 
	C98.924683,274.632446 96.385460,274.082092 93.897133,275.508209 
	C96.400543,276.903625 98.941910,276.368500 101.370041,276.370453 
	C147.998505,276.407867 194.626984,276.390289 241.255447,276.414093 
	C244.063690,276.415527 246.935852,276.047180 249.995850,277.604370 
	C250.619766,289.998779 250.619766,289.998749 238.507721,289.998749 
	C189.393143,289.998749 140.278229,289.921143 91.164505,290.126831 
	C86.586540,290.146027 85.858437,288.832733 85.897156,284.659180 
	C86.108757,261.852020 86.085037,239.041168 85.906830,216.233429 
	C85.879158,212.691315 86.807259,211.909348 90.273460,211.917480 
	C141.885101,212.038773 193.497299,212.055695 245.108765,211.900253 
	C249.339447,211.887527 251.224060,212.672089 250.494247,217.212662 
	C250.128662,219.487091 250.400330,221.863953 250.204132,224.637604 
	C247.411407,227.144791 244.307465,226.574677 241.365005,226.577026 
	C194.918396,226.613922 148.471741,226.599930 102.025093,226.607956 
	C100.032646,226.608307 98.034828,226.496536 96.020966,226.998062 
	C97.825432,227.502335 99.703568,227.391586 101.559288,227.391891 
	C148.005936,227.399750 194.452576,227.389771 240.899200,227.415894 
	C243.702438,227.417480 246.580078,227.015930 249.636185,228.632355 
z"/>
<path fill="#C7C7C7" opacity="1.000000" stroke="none" 
	d="
M250.585510,277.678497 
	C237.039902,277.851990 223.712585,277.739746 210.385223,277.730804 
	C172.388565,277.705322 134.391891,277.721985 96.395226,277.721283 
	C95.062035,277.721252 93.728851,277.713043 92.395660,277.708710 
	C91.072525,277.704437 90.743736,276.844269 90.728600,275.742615 
	C90.712067,274.539001 90.710487,273.317413 92.410072,273.293884 
	C93.743073,273.275452 95.076408,273.278870 96.409599,273.278595 
	C147.404984,273.268341 198.400375,273.258759 249.882294,273.164764 
	C251.400543,274.445129 250.762085,275.976471 250.585510,277.678497 
z"/>
<path fill="#FFFFFF" opacity="1.000000" stroke="none" 
	d="
M250.027679,228.653259 
	C198.209442,228.945236 146.394485,228.980896 94.579575,228.941849 
	C93.268524,228.940872 90.972847,230.172348 90.866356,227.220428 
	C90.731476,223.481720 93.631615,225.078552 95.138443,225.076019 
	C146.454346,224.989746 197.770416,225.006485 249.555466,225.044525 
	C250.026642,225.258057 250.028839,225.435364 250.042908,225.878418 
	C250.361801,226.480225 250.479645,226.877213 250.245102,227.591080 
	C250.046722,228.032974 250.038834,228.210129 250.027679,228.653259 
z"/>
<path fill="#0B0B0B" opacity="1.000000" stroke="none" 
	d="
M409.938995,244.071472 
	C409.938995,249.383102 410.025330,254.204803 409.881775,259.019623 
	C409.843079,260.317993 410.943787,262.499481 408.890289,262.817413 
	C406.810394,263.139374 404.320160,264.016144 402.556824,261.502350 
	C400.081573,257.973694 397.409821,254.582916 394.444305,250.629532 
	C393.417938,254.045959 393.771973,257.132690 393.946869,260.091370 
	C394.167419,263.821472 391.720825,262.878632 389.717499,263.031952 
	C387.468750,263.204041 385.978882,263.004456 386.088226,259.985779 
	C386.316589,253.679352 386.086823,247.357498 386.210724,241.045242 
	C386.238708,239.620331 385.079010,237.269318 387.576141,236.966660 
	C389.701965,236.709015 392.159332,236.013199 393.879608,238.527313 
	C396.263397,242.011169 398.898010,245.323380 402.313049,249.898453 
	C402.313049,245.853012 402.510986,243.251846 402.261993,240.694214 
	C401.963287,237.625946 403.021118,236.712601 406.120575,236.725891 
	C409.119934,236.738770 410.480835,237.440201 409.963684,240.591812 
	C409.804352,241.562729 409.938965,242.581879 409.938995,244.071472 
z"/>
<path fill="#0A0A0A" opacity="1.000000" stroke="none" 
	d="
M381.004456,255.628784 
	C376.328735,263.130585 368.738007,265.509094 361.585205,262.061584 
	C355.461945,259.110291 352.665405,251.999237 355.063538,245.062302 
	C356.951538,239.601013 361.129944,236.812805 366.688019,236.307541 
	C372.145935,235.811401 376.865570,237.483078 380.099609,242.251694 
	C381.585938,244.443420 381.769592,245.976059 378.360260,245.724655 
	C376.265625,245.570160 374.259796,245.929794 372.235840,244.402039 
	C368.994843,241.955627 365.440613,242.321259 363.117462,245.811600 
	C360.986237,249.013611 361.068115,252.632339 364.244537,255.220047 
	C367.637207,257.983948 370.915894,257.229034 374.228912,253.323105 
	C372.117615,253.220901 370.580933,252.999496 369.068573,253.110138 
	C367.128571,253.252060 366.906738,252.246078 366.947327,250.698242 
	C366.988068,249.145844 366.785675,247.670441 369.142273,247.828598 
	C371.296478,247.973160 373.468109,247.856537 375.632080,247.856506 
	C383.266785,247.856384 383.266785,247.856644 381.004456,255.628784 
z"/>
<path fill="#060606" opacity="1.000000" stroke="none" 
	d="
M275.848755,263.007721 
	C266.515503,263.008057 266.515472,263.008057 266.515533,254.271164 
	C266.515564,249.605103 266.629303,244.935181 266.470093,240.274567 
	C266.385010,237.783188 266.981293,236.579742 269.751892,236.805130 
	C272.567078,237.034180 275.416595,236.799759 278.245575,236.909729 
	C286.481018,237.229858 291.755585,242.316940 291.776459,249.870102 
	C291.796692,257.194214 286.785919,262.257202 278.811279,262.948608 
	C277.983063,263.020416 277.146057,262.990448 275.848755,263.007721 
z"/>
<path fill="#0A0A0A" opacity="1.000000" stroke="none" 
	d="
M324.991699,244.019226 
	C326.436371,247.271103 329.526611,246.809845 331.898590,247.685532 
	C336.045624,249.216522 338.967072,251.466812 338.394897,256.343262 
	C337.826294,261.188995 334.431610,262.919495 330.101471,263.393036 
	C326.552856,263.781128 323.094025,263.492462 320.231903,261.063873 
	C318.419617,259.526093 316.385956,256.914490 317.917084,255.255264 
	C319.385315,253.664154 322.834106,253.366699 324.894958,255.799164 
	C325.585724,256.614471 326.261627,257.205261 327.203430,257.481476 
	C328.590851,257.888306 330.014954,257.608704 330.651978,256.316223 
	C331.447174,254.702805 330.044464,253.807510 328.841675,253.339172 
	C326.997864,252.621231 324.977020,252.360748 323.127441,251.654327 
	C319.554871,250.289871 317.317688,247.847122 317.595398,243.749527 
	C317.871338,239.678375 320.287140,237.571304 324.087097,236.641327 
	C328.215302,235.631012 332.080750,236.117310 335.319977,238.894470 
	C337.001770,240.336349 339.195648,242.792252 337.299438,244.616119 
	C336.126465,245.744293 332.614594,246.156555 330.655701,243.866409 
	C328.805115,241.702820 327.000092,241.080612 324.991699,244.019226 
z"/>
<path fill="#040404" opacity="1.000000" stroke="none" 
	d="
M295.843933,250.993256 
	C295.843994,247.171265 295.990509,243.837219 295.797485,240.522934 
	C295.644531,237.896515 296.161621,236.571060 299.225616,236.791550 
	C303.030273,237.065323 306.872925,236.953354 310.692719,236.821259 
	C312.938416,236.743607 313.976501,237.269943 313.919464,239.820801 
	C313.867737,242.134247 313.310791,243.202728 310.839264,242.975616 
	C309.025696,242.808945 307.184204,242.946411 305.355164,242.948303 
	C304.109161,242.949600 303.089355,243.077164 303.167572,244.798904 
	C303.237915,246.347549 304.022247,246.796860 305.378113,246.781723 
	C306.708130,246.766891 308.047516,246.883347 309.366669,246.764008 
	C311.765564,246.546936 312.990356,247.109070 312.916351,249.959717 
	C312.848999,252.554962 311.662781,252.652237 309.585846,252.992065 
	C307.437195,253.343628 303.227234,250.801956 303.454651,255.044586 
	C303.661804,258.909363 307.776489,256.643097 310.004089,256.729767 
	C313.060730,256.848633 314.574310,257.345276 314.170593,260.806183 
	C313.968231,262.540649 313.469727,263.135468 311.796570,263.023560 
	C310.306793,262.923920 308.804993,263.004150 307.308502,263.004181 
	C295.843933,263.004395 295.843933,263.004364 295.843933,250.993256 
z"/>
<path fill="#000000" opacity="1.000000" stroke="none" 
	d="
M350.044952,249.005096 
	C350.044952,252.647202 349.847015,255.809418 350.100677,258.934967 
	C350.353729,262.053253 349.517029,263.139832 346.134491,263.139679 
	C342.798889,263.139557 342.411041,261.866211 342.489044,259.082367 
	C342.665192,252.795029 342.714966,246.492783 342.472443,240.209869 
	C342.352905,237.113525 343.711945,236.756104 346.251709,236.804810 
	C348.619263,236.850204 350.459259,236.750031 350.105682,240.070724 
	C349.809326,242.854141 350.044891,245.694168 350.044952,249.005096 
z"/>
<path fill="#C7C7C7" opacity="1.000000" stroke="none" 
	d="
M250.259109,227.744049 
	C250.068176,227.474640 250.081726,227.093491 250.075027,226.428238 
	C250.778305,226.478897 250.910934,226.975937 250.259109,227.744049 
z"/>
<path fill="#E9E9E9" opacity="1.000000" stroke="none" 
	d="
M207.183716,238.547119 
	C209.358871,235.329239 210.688644,237.070786 212.030090,238.970505 
	C216.018005,244.618225 220.024033,250.253143 224.916412,257.153076 
	C224.916412,250.296478 224.902695,244.911316 224.926666,239.526321 
	C224.932236,238.274796 224.547745,236.681732 226.734634,236.855072 
	C228.577042,237.001083 228.099838,238.423904 228.105927,239.461594 
	C228.145020,246.114670 228.176865,252.768829 228.079163,259.420685 
	C228.062119,260.582245 228.952347,262.245331 227.225357,262.899536 
	C225.169357,263.678345 224.260590,262.002686 223.308533,260.658020 
	C219.415497,255.159485 215.542297,249.646912 210.704102,244.341904 
	C210.704102,249.549133 210.717087,254.756424 210.695633,259.963562 
	C210.689743,261.393646 211.103790,263.209290 208.667770,263.006897 
	C206.537415,262.829834 207.204727,261.121277 207.195816,259.950287 
	C207.142715,252.964737 207.170624,245.978561 207.183716,238.547119 
z"/>
<path fill="#F0F0F0" opacity="1.000000" stroke="none" 
	d="
M148.570740,257.248169 
	C147.254181,255.565842 146.752274,253.704697 144.374008,253.672211 
	C141.715927,253.635925 139.735321,253.833618 140.287277,257.310547 
	C140.492798,258.605286 140.280457,259.962372 140.314072,261.289612 
	C140.346069,262.553650 139.752747,263.017761 138.524963,263.024872 
	C137.083344,263.033234 137.003357,262.132385 137.004272,261.074310 
	C137.010742,253.602570 137.019058,246.130814 137.000870,238.659134 
	C136.997894,237.437775 137.474472,236.812759 138.737701,236.849991 
	C142.548904,236.962326 146.404922,236.743805 150.157684,237.268219 
	C153.124786,237.682846 155.175552,239.913986 155.816360,242.909988 
	C156.508270,246.144989 156.273849,249.662308 153.208054,251.384781 
	C149.710922,253.349579 150.812042,254.939438 152.552689,257.164307 
	C153.859482,258.834656 154.910736,260.704895 156.163696,262.620605 
	C151.135117,264.236145 150.877594,259.644623 148.570740,257.248169 
z"/>
<path fill="#F0F0F0" opacity="1.000000" stroke="none" 
	d="
M123.409561,247.499893 
	C125.575264,252.725327 127.559502,257.611298 129.535995,262.478210 
	C126.779922,263.950928 125.631805,262.378723 125.114983,260.258453 
	C124.423302,257.420807 122.711655,256.700745 120.040565,257.025696 
	C115.869637,257.533142 110.413521,254.919434 109.053062,261.886871 
	C108.742935,263.475159 107.190697,263.232269 106.207924,262.835114 
	C104.813049,262.271362 105.894073,261.122009 106.175949,260.419281 
	C109.068924,253.206940 112.070160,246.038101 115.009850,238.844315 
	C115.481766,237.689484 116.027687,236.842941 117.468040,236.822647 
	C118.955757,236.801697 119.458855,237.770096 119.904640,238.872131 
	C121.020828,241.631516 122.121307,244.397247 123.409561,247.499893 
z"/>
<path fill="#EDEDED" opacity="1.000000" stroke="none" 
	d="
M184.813782,240.792435 
	C182.102570,247.617783 179.548370,254.075974 176.950272,260.516449 
	C176.480728,261.680420 176.263535,263.089844 174.410858,263.062225 
	C172.638947,263.035736 172.326447,261.843140 171.827545,260.568970 
	C169.174530,253.793335 166.438736,247.050064 163.797470,240.269928 
	C163.388474,239.220016 161.884125,237.813614 163.660477,236.974533 
	C165.339401,236.181458 166.300369,237.514420 166.900650,239.082230 
	C168.911148,244.333237 170.981049,249.561569 173.048065,254.790726 
	C173.343765,255.538788 173.749023,256.243561 174.448395,257.673279 
	C177.067856,251.150681 179.477951,245.282639 181.763565,239.366486 
	C182.351028,237.845886 182.943726,236.344360 184.808853,236.922928 
	C187.651947,237.804871 184.437469,239.253769 184.813782,240.792435 
z"/>
<path fill="#F0F0F0" opacity="1.000000" stroke="none" 
	d="
M196.948883,257.804871 
	C196.939743,259.446411 196.958389,260.612610 196.913452,261.776337 
	C196.870712,262.883423 196.084351,263.012970 195.196121,263.007507 
	C194.228470,263.001556 193.604706,262.605774 193.602692,261.586121 
	C193.587601,253.929047 193.592850,246.271942 193.583054,238.614853 
	C193.581451,237.367050 194.196304,236.848694 195.416595,236.870682 
	C197.252045,236.903732 196.934799,238.251755 196.938385,239.350189 
	C196.957993,245.342896 196.948410,251.335693 196.948883,257.804871 
z"/>
<path fill="#F7F7F7" opacity="1.000000" stroke="none" 
	d="
M274.047302,246.157867 
	C276.224579,241.593170 279.245514,243.755310 281.571472,245.096527 
	C284.619965,246.854370 284.775024,251.605011 282.332275,254.218185 
	C280.423615,256.260010 277.839111,256.534393 275.461853,256.025909 
	C272.561554,255.405548 274.493439,252.754745 274.111267,251.064102 
	C273.792419,249.653824 274.046021,248.114151 274.047302,246.157867 
z"/>
<path fill="#0B0B0B" opacity="1.000000" stroke="none" 
	d="
M151.172577,241.569580 
	C153.139297,244.381073 153.338135,247.021088 150.877151,248.960602 
	C148.071838,251.171478 144.095749,251.339523 141.441833,249.928757 
	C138.644821,248.441895 140.565872,244.503906 140.381836,241.665359 
	C140.224838,239.243759 142.408569,240.044067 143.709473,240.011307 
	C146.171158,239.949341 148.726578,239.617737 151.172577,241.569580 
z"/>
<path fill="#0B0B0B" opacity="1.000000" stroke="none" 
	d="
M116.187492,244.433945 
	C116.995445,243.856277 116.521019,241.740219 117.929733,242.935608 
	C118.597923,243.502579 118.732010,244.697433 119.111542,245.606369 
	C122.735649,254.285736 122.735863,254.285645 113.044044,253.807434 
	C113.041824,250.446014 115.262001,247.827957 116.187492,244.433945 
z"/>
</svg>